<?xml version="1.0" standalone="no"?>
<!DOCTYPE svg PUBLIC "-//W3C//DTD SVG 20010904//EN"
 "http://www.w3.org/TR/2001/REC-SVG-20010904/DTD/svg10.dtd">
<svg version="1.0" xmlns="http://www.w3.org/2000/svg"
 width="6024.000000pt" height="2480.000000pt" viewBox="0 0 6024.000000 2480.000000"
 preserveAspectRatio="xMidYMid meet">

<g transform="translate(0.000000,2480.000000) scale(0.100000,-0.100000)"
fill="#000000" stroke="none">
<path d="M20281 16416 c-10 -11 -5 -20 23 -41 20 -15 34 -30 32 -34 -9 -14 24
-125 43 -145 12 -12 21 -26 21 -30 0 -5 16 -43 36 -85 89 -186 105 -211 135
-211 10 0 23 8 28 18 9 15 10 15 11 -4 0 -38 78 -307 91 -315 23 -14 31 3 27
52 -3 27 -1 46 4 43 4 -3 8 -11 8 -19 0 -7 10 -32 22 -54 16 -31 27 -41 43
-39 16 2 20 10 19 43 0 22 -8 56 -17 75 -10 20 -19 47 -22 60 -2 13 -8 26 -12
29 -5 3 -19 31 -32 61 -13 30 -27 62 -31 70 -37 67 -80 155 -80 163 0 6 -13
22 -28 36 -16 14 -37 42 -48 61 -10 19 -34 56 -51 82 -18 26 -33 50 -33 54 0
17 -64 94 -97 117 -43 30 -75 34 -92 13z"/>
<path d="M19971 16271 c-24 -16 -4 -53 69 -131 241 -254 366 -378 373 -371 25
25 -48 154 -117 208 -14 11 -31 32 -37 46 -7 15 -21 29 -31 33 -11 3 -24 16
-29 28 -6 12 -22 30 -37 40 -15 10 -36 30 -47 44 -19 26 -19 26 20 -3 81 -60
269 -270 303 -337 7 -15 17 -28 22 -28 5 0 11 -8 14 -18 8 -24 77 -97 99 -105
42 -15 26 47 -41 158 -38 63 -82 126 -94 135 -4 3 -19 23 -33 45 -15 21 -42
55 -59 75 -109 119 -140 150 -150 150 -6 0 -17 9 -24 20 -9 16 -23 20 -62 20
-44 0 -50 -3 -50 -20 l0 -21 -22 21 c-23 21 -45 25 -67 11z"/>
<path d="M16907 16203 c-12 -12 -7 -50 8 -63 8 -7 25 -30 37 -51 12 -21 30
-41 40 -45 13 -4 17 -11 13 -25 -4 -12 1 -31 11 -47 22 -35 111 -118 148 -138
l29 -16 -38 53 c-22 30 -58 74 -81 98 -40 42 -41 45 -25 63 19 20 42 84 33 92
-3 3 -11 1 -17 -4 -9 -7 -30 4 -75 40 -64 51 -72 55 -83 43z"/>
<path d="M19846 16174 c-3 -9 5 -42 19 -73 16 -33 22 -57 16 -59 -21 -7 -10
-30 19 -41 17 -5 30 -14 30 -20 0 -13 -34 -3 -57 17 -29 27 -67 44 -104 45
-27 2 -35 -2 -37 -19 -2 -14 6 -24 25 -34 15 -8 42 -24 58 -36 17 -11 40 -24
53 -28 12 -4 22 -11 22 -16 0 -4 17 -18 37 -30 33 -19 35 -23 19 -32 -18 -10
-24 -6 -102 70 -13 12 -32 22 -43 22 -22 0 -51 -25 -51 -43 0 -7 30 -41 65
-76 36 -35 63 -66 61 -68 -2 -3 -25 3 -50 11 -53 18 -132 21 -141 6 -9 -15 12
-38 37 -42 40 -6 31 -26 -15 -33 -49 -8 -107 -38 -107 -56 0 -7 10 -9 28 -4
50 13 202 17 230 7 60 -23 90 -24 111 -3 l20 20 118 -115 c174 -169 172 -168
180 -160 4 3 1 21 -5 39 -7 19 -12 41 -12 51 0 9 -7 19 -15 22 -8 3 -17 15
-21 26 -3 11 -53 68 -110 126 -57 58 -104 107 -104 109 0 4 49 -16 137 -59 87
-41 164 -70 169 -65 12 12 -112 118 -153 131 -13 4 -23 12 -23 17 0 5 -9 9
-20 9 -17 0 -55 57 -89 133 -4 10 91 -54 112 -75 8 -7 36 -31 62 -53 98 -82
285 -286 302 -331 7 -19 51 -45 57 -35 6 9 -48 121 -63 131 -4 3 -26 30 -48
60 -42 57 -148 169 -218 231 -22 20 -48 52 -59 72 -29 56 -153 161 -261 221
-17 9 -40 23 -51 31 -20 14 -22 14 -28 -1z"/>
<path d="M20755 16180 c-8 -13 3 -97 20 -145 19 -55 55 -188 71 -260 7 -33 20
-77 29 -99 16 -37 17 -38 36 -20 23 21 25 77 5 131 -8 21 -22 65 -31 98 -10
33 -30 98 -45 145 -16 47 -31 97 -34 112 -7 29 -41 55 -51 38z"/>
<path d="M17101 16096 c-10 -12 -3 -24 35 -67 25 -29 59 -63 76 -77 16 -13 27
-27 24 -30 -5 -5 24 -52 51 -82 7 -8 40 -49 72 -91 33 -42 75 -86 94 -98 20
-12 37 -29 39 -38 2 -9 14 -17 28 -19 35 -3 194 -51 244 -73 22 -10 68 -29
101 -41 33 -12 69 -25 80 -30 11 -4 49 -17 85 -28 158 -51 165 -55 162 -85 -5
-41 25 -48 53 -12 27 33 53 26 30 -9 -14 -21 -14 -25 1 -37 14 -11 22 -10 55
8 44 24 58 19 29 -12 -43 -45 11 -76 62 -35 25 19 25 19 61 0 49 -26 219 -97
287 -120 171 -56 406 -128 425 -131 6 0 15 -5 22 -11 7 -5 17 -7 23 -3 5 3 20
-1 32 -9 12 -9 32 -16 43 -16 11 0 32 -6 46 -14 37 -19 80 -29 173 -39 13 -1
22 6 26 23 3 14 9 20 12 14 4 -6 39 -17 79 -24 39 -8 73 -20 76 -27 3 -7 8
-11 12 -9 4 3 18 -22 31 -55 l23 -60 38 37 c42 41 40 26 19 189 -6 44 -13 148
-15 230 -4 124 -2 159 12 203 15 45 15 55 3 62 -10 6 -3 10 23 15 21 4 40 11
43 16 3 5 13 9 23 9 10 0 24 6 30 14 20 24 -12 39 -66 32 l-48 -6 33 14 c60
28 31 60 -32 36 -17 -6 -26 -6 -26 0 0 19 -23 9 -57 -25 -19 -19 -33 -41 -30
-49 4 -9 -7 -17 -32 -24 -43 -13 -87 -55 -76 -72 7 -11 48 -8 98 6 18 6 18 4
1 -28 -10 -20 -19 -64 -21 -113 -3 -44 -8 -105 -13 -135 -4 -30 -6 -87 -5
-126 l3 -72 -69 5 c-82 6 -107 0 -89 -22 17 -20 0 -19 -30 3 -30 21 -87 42
-115 42 -11 0 -31 7 -43 16 -12 8 -22 13 -22 11 0 -8 -91 17 -280 78 -63 20
-133 41 -155 45 -37 7 -131 39 -180 60 -34 15 -227 73 -241 73 -8 0 -16 8 -19
18 -3 9 -22 24 -43 33 -20 9 -83 41 -139 70 -93 50 -297 123 -478 172 -273 74
-275 75 -316 132 -67 96 -262 312 -346 385 -17 15 -22 16 -32 3z"/>
<path d="M16739 15914 c-15 -18 -13 -19 52 -59 70 -42 80 -51 97 -85 14 -27
34 -43 90 -69 40 -19 72 -40 72 -47 0 -6 -22 -21 -50 -33 -27 -12 -54 -29 -59
-39 -8 -15 -19 -18 -69 -14 -33 2 -62 0 -66 -6 -8 -14 61 -58 112 -72 23 -6
42 -14 42 -18 0 -14 86 -44 140 -49 33 -3 58 -11 63 -20 6 -10 18 -12 40 -7
17 3 67 6 110 6 55 -1 79 2 83 12 3 9 16 3 39 -20 19 -18 35 -37 35 -42 0 -15
65 -69 123 -103 74 -42 91 -53 97 -59 47 -47 319 -220 346 -220 7 0 19 -12 26
-27 8 -17 28 -33 53 -43 23 -8 74 -40 115 -70 41 -30 107 -75 145 -101 39 -26
85 -59 103 -75 18 -15 41 -32 51 -38 59 -36 201 -132 239 -162 15 -12 29 -21
32 -21 9 2 90 -47 90 -54 0 -3 14 -12 30 -19 17 -7 30 -16 30 -21 0 -5 6 -9
12 -9 18 0 121 -65 210 -132 42 -32 80 -58 83 -58 4 0 25 -12 48 -27 62 -41
78 -51 121 -74 47 -25 69 -46 62 -57 -6 -10 20 -116 40 -159 7 -17 14 -40 14
-52 0 -11 6 -35 14 -53 8 -18 22 -60 31 -93 23 -81 43 -141 54 -162 5 -10 14
-36 21 -58 7 -22 25 -67 41 -100 15 -33 39 -89 54 -125 15 -36 31 -70 36 -76
5 -6 20 -51 34 -100 15 -49 41 -134 60 -189 34 -104 57 -193 76 -305 17 -101
19 -134 20 -305 0 -88 5 -198 10 -245 10 -83 11 -133 5 -310 -4 -131 34 -320
64 -320 6 0 10 -9 10 -19 0 -19 28 -37 39 -25 10 10 1 144 -15 223 -16 76 -18
143 -8 296 3 44 0 118 -6 165 -5 47 -12 175 -15 285 -5 206 -9 279 -18 305 -3
8 -11 47 -18 85 -6 39 -14 75 -18 80 -3 6 -11 33 -17 60 -7 28 -19 70 -28 95
-9 25 -29 89 -46 142 -16 53 -33 105 -38 115 -5 10 -22 45 -38 78 -15 33 -31
62 -34 65 -10 9 -145 394 -154 437 -1 10 -8 31 -15 47 -6 16 -21 63 -32 104
-11 41 -27 91 -36 111 -9 20 -15 40 -14 44 1 5 -4 27 -10 50 -6 23 -12 55 -14
72 -2 16 -13 66 -25 110 -11 44 -28 118 -35 165 -36 210 -42 230 -75 230 -11
0 -23 -8 -28 -17 -10 -19 -7 -116 4 -173 4 -19 9 -52 10 -72 1 -21 5 -46 9
-55 4 -10 8 -27 10 -38 2 -11 9 -49 15 -85 6 -36 14 -74 17 -85 5 -16 3 -18
-8 -9 -8 6 -30 17 -50 23 -20 6 -54 26 -75 44 -21 18 -55 40 -74 51 -19 10
-59 35 -89 55 -29 20 -60 41 -70 46 -119 73 -169 104 -204 127 -23 16 -55 35
-72 44 -54 28 -76 41 -98 60 -31 26 -105 74 -115 74 -4 0 -15 8 -23 18 -9 9
-24 23 -35 29 -10 7 -90 60 -176 118 -86 58 -161 105 -167 105 -13 0 -100 61
-137 96 -17 16 -80 59 -139 94 -59 36 -130 83 -159 105 -28 22 -86 65 -130 95
-43 30 -86 62 -95 70 -71 64 -127 90 -191 89 -25 0 -76 0 -114 0 -38 1 -75 -4
-82 -10 -7 -6 -18 -8 -24 -4 -6 4 -32 10 -57 13 -44 7 -46 9 -59 51 -12 41
-11 45 9 62 12 10 46 25 75 34 56 17 56 17 16 72 -25 33 -133 93 -167 93 -17
0 -19 5 -13 31 3 17 6 45 6 61 0 27 2 28 23 17 12 -7 24 -15 27 -19 3 -4 38
-24 78 -45 67 -34 102 -40 102 -16 0 12 -83 71 -99 71 -6 0 -11 4 -11 8 0 11
-68 35 -79 28 -5 -4 -21 -2 -35 4 -14 5 -26 6 -26 1 0 -5 -21 -3 -47 5 -61 18
-97 18 -114 -2z"/>
<path d="M20935 15786 c3 -14 7 -38 10 -52 3 -14 10 -31 15 -37 43 -53 63 -87
113 -194 31 -67 57 -129 57 -137 0 -9 4 -16 9 -16 5 0 21 -25 35 -55 27 -59
165 -293 227 -385 23 -35 68 -78 122 -119 47 -36 83 -69 80 -74 -3 -4 3 -7 13
-5 21 3 34 -36 60 -172 12 -67 12 -76 -2 -86 -10 -8 -11 -13 -3 -16 14 -5 -68
-124 -83 -120 -5 1 -7 -2 -4 -7 3 -5 -23 -34 -59 -66 -36 -31 -65 -51 -65 -44
0 8 -7 6 -19 -5 -19 -17 -20 -17 -30 3 -6 11 -11 30 -11 43 0 13 -24 96 -53
184 l-53 161 36 -10 c19 -5 44 -16 55 -23 38 -27 38 -14 -1 21 -21 19 -61 42
-89 51 -27 9 -65 25 -84 35 -18 11 -56 25 -85 31 -52 11 -70 22 -155 94 -26
22 -57 47 -67 55 -11 8 -35 34 -54 59 -52 68 -130 160 -174 203 -35 36 -40 38
-54 23 -13 -12 -13 -20 -4 -41 14 -30 92 -116 101 -111 3 2 30 -26 59 -62 69
-88 180 -202 196 -202 3 0 29 -18 58 -40 29 -22 73 -48 98 -57 85 -31 117 -63
124 -122 2 -16 12 -44 23 -63 11 -18 26 -54 33 -81 7 -26 17 -50 21 -53 5 -3
9 -18 9 -34 0 -34 -26 -48 -35 -18 -5 13 -10 17 -17 10 -6 -6 -23 -4 -48 4
-42 15 -147 69 -170 89 -24 19 -180 99 -235 119 -27 11 -56 23 -63 29 -23 18
-156 92 -255 141 -71 35 -102 45 -110 37 -7 -7 -5 -16 8 -31 10 -11 22 -20 26
-20 4 0 27 -13 51 -29 24 -16 66 -40 93 -54 28 -13 77 -38 110 -55 33 -16 79
-35 103 -42 23 -7 42 -16 42 -19 0 -3 21 -17 48 -31 26 -13 49 -27 52 -30 10
-11 410 -230 420 -230 5 0 10 -5 10 -11 0 -7 -10 -9 -25 -5 -17 4 -24 3 -23
-6 6 -26 -57 -14 -111 21 -30 20 -70 46 -90 58 -46 28 -221 113 -232 113 -5 0
-20 10 -34 22 -30 26 -136 68 -171 68 -14 0 -32 4 -42 9 -9 6 -55 22 -101 37
-48 15 -78 29 -71 34 13 8 -42 24 -122 35 -70 10 -298 21 -298 14 0 -4 -21
-12 -47 -19 -73 -18 -91 -27 -109 -55 -12 -18 -14 -29 -6 -37 6 -6 7 -21 1
-40 -4 -17 -7 -34 -4 -38 2 -3 6 -77 9 -162 3 -86 10 -176 15 -200 5 -23 12
-65 15 -93 7 -55 21 -144 37 -220 5 -27 14 -75 20 -105 6 -30 14 -71 19 -90 5
-19 14 -62 20 -95 6 -33 26 -123 45 -200 19 -77 46 -189 60 -250 14 -60 32
-130 39 -155 8 -25 17 -58 21 -74 3 -15 8 -26 11 -23 3 3 -2 38 -10 78 -8 40
-14 74 -12 76 2 2 40 -111 87 -255 16 -50 27 -568 15 -682 -52 -469 -54 -492
-66 -635 -10 -137 -21 -263 -26 -305 -1 -14 -5 -52 -9 -85 -4 -33 -7 -68 -7
-77 1 -11 -15 -23 -46 -34 -26 -9 -67 -25 -91 -35 -24 -11 -49 -19 -56 -19 -7
0 -39 -13 -71 -30 -32 -16 -66 -30 -75 -30 -9 0 -19 -3 -23 -7 -3 -4 -14 -8
-24 -9 -9 -2 -18 -8 -20 -13 -2 -6 -11 -11 -20 -11 -9 0 -39 -11 -66 -25 -27
-13 -53 -22 -57 -20 -4 3 -12 -2 -19 -10 -7 -8 -18 -15 -26 -15 -12 0 -179
-71 -329 -140 -109 -50 -133 -60 -141 -60 -4 0 -32 -12 -62 -26 -31 -15 -60
-27 -66 -28 -21 -4 -111 -39 -120 -48 -6 -4 -17 -8 -25 -8 -16 0 -190 -54
-226 -70 -11 -5 -38 -14 -60 -22 -22 -7 -49 -18 -60 -25 -11 -7 -29 -13 -40
-13 -12 0 -25 -4 -31 -8 -5 -5 -29 -15 -54 -22 -25 -8 -69 -25 -98 -37 -29
-13 -68 -25 -85 -27 -18 -3 -34 -5 -37 -6 -3 -1 -9 -3 -15 -4 -28 -6 -46 -22
-65 -59 -12 -23 -27 -46 -34 -52 -7 -5 -23 -27 -37 -47 -31 -45 -116 -145
-148 -173 -60 -52 -72 -62 -110 -89 -23 -17 -41 -33 -41 -37 0 -4 -25 -22 -56
-39 -30 -18 -58 -39 -61 -46 -3 -8 -11 -14 -19 -14 -8 0 -14 -4 -14 -9 0 -5
-24 -21 -54 -35 -30 -14 -56 -29 -58 -33 -1 -5 -28 -21 -58 -37 -30 -15 -73
-43 -95 -60 -22 -17 -57 -43 -77 -56 -21 -14 -38 -28 -38 -32 0 -5 -5 -8 -11
-8 -6 0 -16 -6 -24 -12 -7 -7 -33 -29 -56 -48 -24 -19 -60 -51 -79 -70 -20
-19 -68 -64 -108 -99 -40 -35 -81 -79 -92 -96 -21 -33 -56 -52 -155 -80 -33
-10 -80 -28 -105 -41 -25 -13 -57 -24 -72 -24 -14 0 -53 -6 -85 -14 -32 -8
-80 -17 -108 -21 -55 -6 -152 -23 -174 -31 -9 -3 -11 -8 -5 -14 6 -6 50 -4
114 5 203 26 363 67 396 100 20 19 34 19 34 0 0 -8 5 -15 11 -15 5 0 7 -4 4
-10 -9 -14 5 -13 81 11 61 19 78 30 149 100 208 203 289 279 299 279 6 0 25
13 41 28 17 15 45 38 62 50 30 21 36 22 68 11 19 -7 35 -17 35 -21 0 -4 7 -8
15 -8 8 0 15 -4 15 -8 0 -5 12 -15 28 -23 15 -7 70 -41 122 -74 52 -33 113
-69 135 -79 22 -10 60 -33 85 -51 25 -17 65 -42 90 -54 61 -30 84 -44 92 -57
4 -7 20 -15 35 -19 16 -3 37 -15 48 -25 23 -21 71 -50 135 -82 25 -13 50 -28
55 -34 17 -18 102 -72 127 -79 12 -4 34 -16 48 -27 42 -31 123 -82 165 -103
22 -11 42 -22 45 -25 3 -3 12 -9 21 -15 9 -5 44 -29 78 -53 34 -23 64 -42 66
-42 4 0 93 -57 140 -90 68 -47 137 -90 145 -90 6 0 40 -27 81 -65 9 -8 19 -15
24 -15 4 0 29 -15 55 -34 26 -18 56 -37 68 -40 12 -4 22 -11 22 -16 0 -5 8
-11 19 -15 19 -6 212 -132 221 -144 3 -4 48 -35 100 -69 52 -34 109 -71 125
-82 17 -11 53 -35 80 -53 28 -17 52 -34 55 -38 3 -3 33 -21 68 -39 34 -17 62
-36 62 -40 0 -5 9 -12 21 -15 20 -7 43 -23 73 -52 7 -6 21 -36 30 -67 10 -31
22 -56 27 -56 5 0 12 -18 15 -40 4 -22 11 -43 15 -46 5 -3 9 -11 9 -19 0 -13
38 -100 110 -250 16 -33 48 -107 70 -165 23 -58 48 -116 55 -130 7 -14 39 -79
70 -145 32 -66 68 -133 80 -150 12 -16 36 -60 53 -97 17 -36 36 -69 42 -73 5
-3 10 -13 10 -21 0 -8 17 -41 39 -73 21 -32 51 -85 66 -117 15 -33 38 -81 51
-109 33 -66 41 -131 20 -170 -9 -16 -16 -35 -16 -42 0 -6 -5 -13 -10 -15 -15
-5 -61 -145 -65 -197 -1 -27 -9 -47 -19 -53 -25 -14 -36 -76 -33 -184 3 -92 5
-103 35 -150 18 -28 32 -56 32 -63 0 -6 6 -11 13 -11 15 0 51 -79 41 -89 -3
-3 -16 6 -29 21 -13 15 -35 30 -48 34 -14 3 -33 14 -43 25 -9 10 -23 19 -31
19 -7 0 -13 4 -13 8 0 7 -81 59 -158 102 -15 8 -31 21 -35 28 -4 6 -16 12 -26
12 -10 0 -26 9 -37 21 -10 12 -54 46 -96 76 -43 30 -83 60 -90 66 -20 19 -111
91 -129 102 -58 35 -139 97 -139 105 0 6 -6 10 -13 10 -8 0 -22 9 -32 20 -10
11 -24 20 -32 20 -7 0 -13 4 -13 9 0 6 -18 20 -40 32 -22 13 -40 26 -40 31 0
4 -5 8 -12 8 -6 0 -44 25 -84 55 -40 30 -76 55 -80 55 -10 0 -108 73 -117 87
-4 7 -13 13 -18 13 -10 0 -104 71 -140 105 -9 8 -18 15 -22 15 -3 0 -27 15
-52 33 -26 17 -55 37 -65 42 -10 6 -37 28 -61 48 -23 21 -52 40 -65 43 -13 3
-30 17 -39 30 -9 14 -20 22 -25 19 -5 -3 -17 2 -27 12 -10 10 -32 25 -48 33
-16 8 -40 25 -54 38 -14 13 -41 30 -60 39 -32 15 -80 51 -132 98 -9 8 -21 15
-27 15 -6 0 -31 17 -55 38 -46 39 -86 69 -116 86 -10 6 -43 28 -74 49 -31 20
-60 37 -65 37 -5 0 -16 7 -23 16 -7 9 -22 20 -34 25 -38 18 -143 85 -155 100
-3 3 -32 21 -65 39 -33 18 -72 41 -87 51 -14 11 -29 19 -32 19 -4 0 -17 9 -29
21 -19 18 -110 76 -185 119 -15 8 -29 18 -32 22 -3 4 -33 25 -65 47 -102 69
-217 150 -291 207 -39 30 -74 54 -78 54 -4 0 -22 11 -40 25 -18 14 -36 25 -40
25 -4 0 -19 11 -34 25 -15 14 -31 25 -37 25 -9 0 -118 76 -190 132 -16 13 -42
30 -57 37 -15 8 -36 22 -46 32 -11 9 -33 24 -51 33 -18 10 -35 24 -38 32 -3 7
-9 14 -14 14 -5 0 -39 22 -77 50 -38 28 -72 50 -76 50 -5 0 -35 23 -68 50 -33
28 -64 50 -70 50 -5 0 -15 6 -22 13 -8 6 -24 19 -36 27 -39 26 -144 102 -155
112 -6 6 -4 7 8 3 64 -25 -75 71 -233 161 -36 20 -79 47 -97 60 -17 13 -35 24
-38 24 -4 0 -32 20 -64 45 -31 25 -63 45 -69 45 -7 0 -12 4 -12 10 0 5 -21 23
-47 41 -77 51 -143 103 -143 110 0 30 208 91 291 85 27 -2 55 -8 61 -13 7 -6
38 -13 69 -17 44 -4 58 -3 62 8 7 18 -1 26 -25 26 -10 0 -18 5 -18 10 0 6 -8
10 -18 10 -18 0 -67 43 -147 128 -29 31 -36 45 -28 53 6 6 62 24 125 40 l113
28 17 -21 c22 -25 45 -18 58 18 l10 26 18 -22 c16 -19 22 -21 40 -11 15 8 22
21 22 41 0 17 5 30 13 31 6 0 30 9 52 20 l40 19 -90 -4 c-62 -3 -115 -13 -170
-32 -71 -24 -93 -27 -200 -25 -66 1 -123 5 -126 9 -4 4 -10 38 -14 76 -3 38
-7 74 -8 80 -2 13 252 16 270 3 7 -5 18 -7 25 -5 6 2 20 -4 30 -14 18 -18 48
-15 48 6 0 8 29 10 99 8 66 -3 107 0 122 9 23 12 23 12 -13 25 -56 19 -333 62
-446 69 -24 2 -45 5 -48 8 -8 8 -8 126 0 183 5 40 4 53 -7 57 -24 9 -62 -17
-72 -51 -6 -22 -15 -32 -30 -32 -31 0 -99 -27 -140 -54 -20 -14 -45 -28 -55
-31 -20 -6 -35 -38 -26 -54 3 -4 46 -7 95 -5 49 2 100 0 112 -4 21 -8 20 -10
-15 -30 -22 -13 -36 -29 -36 -41 0 -20 -14 -30 -100 -71 -46 -21 -100 -66
-100 -83 0 -5 -10 -17 -22 -26 -19 -16 -20 -23 -12 -52 11 -39 42 -50 67 -25
9 9 22 16 29 16 8 0 19 5 25 11 12 12 133 40 144 33 3 -2 9 -16 12 -31 6 -31
56 -59 85 -48 12 4 10 -1 -7 -19 -13 -14 -21 -32 -18 -40 4 -9 -5 -18 -25 -27
-38 -15 -76 -55 -135 -141 -26 -38 -50 -68 -54 -68 -16 0 -65 26 -85 45 -12
11 -34 29 -50 40 -15 11 -40 30 -55 43 -15 12 -30 22 -33 22 -4 0 -52 32 -107
70 -55 39 -104 70 -109 70 -6 0 -10 4 -10 8 0 5 -22 24 -50 43 -27 19 -50 37
-50 42 0 4 -5 7 -10 7 -11 0 -171 115 -200 143 -8 8 -41 42 -74 76 -32 33 -62
61 -67 61 -14 0 -119 138 -150 196 -16 31 -29 66 -29 78 0 12 -4 26 -9 31 -17
18 -80 261 -81 313 0 2 4 1 9 -3 6 -3 12 9 15 27 16 109 30 186 37 203 7 17 8
15 9 -10 1 -27 2 -28 12 -11 6 10 19 60 29 110 10 50 23 107 28 126 15 49 14
53 -13 48 l-25 -5 30 43 c39 57 54 65 35 19 -9 -21 -16 -39 -16 -41 0 -12 32
0 72 25 28 18 48 25 50 19 6 -18 28 1 28 23 0 23 -11 24 -53 3 -30 -16 -29
-14 12 25 24 22 47 41 52 41 5 0 9 11 9 25 0 20 5 25 25 25 15 0 39 7 55 15
17 9 30 11 30 6 0 -5 -5 -11 -11 -13 -6 -2 -9 -14 -7 -28 l3 -23 30 25 c24 21
27 28 17 40 -9 12 -5 18 26 33 36 18 142 29 142 14 0 -14 64 -38 76 -28 14 12
128 -14 191 -43 45 -21 63 -18 63 12 0 10 5 22 10 25 6 3 10 2 10 -3 0 -8 13
-25 64 -84 23 -26 67 -34 81 -15 14 20 19 16 109 -69 168 -158 274 -255 331
-301 33 -26 62 -51 63 -55 2 -5 8 -8 13 -8 16 0 68 -42 128 -103 59 -61 98
-87 129 -87 11 0 22 -7 26 -15 3 -8 12 -15 21 -15 8 0 15 -5 15 -10 0 -6 12
-16 28 -23 15 -6 33 -20 40 -29 7 -10 19 -18 26 -18 8 0 16 -6 19 -13 2 -7 25
-23 51 -36 25 -13 46 -28 46 -32 0 -5 22 -20 49 -33 26 -14 62 -36 79 -50 16
-15 34 -26 40 -26 5 0 32 -18 60 -40 27 -22 54 -40 59 -40 6 0 23 -11 39 -25
l28 -24 -22 -30 c-12 -17 -22 -34 -22 -39 0 -4 -8 -17 -17 -28 -10 -11 -24
-31 -32 -45 -7 -13 -27 -42 -44 -65 -29 -38 -33 -40 -57 -28 -14 7 -69 22
-123 34 -53 12 -150 39 -215 62 -126 43 -213 68 -239 68 -13 0 -12 -5 8 -26
l24 -27 -24 13 c-13 7 -38 14 -55 16 -17 2 -69 12 -116 22 -83 17 -120 18
-120 3 0 -10 43 -50 53 -50 4 0 33 -7 65 -17 31 -10 64 -18 72 -18 8 -1 14 -8
12 -17 -4 -27 20 -40 48 -25 20 10 36 10 82 -1 199 -45 367 -75 379 -67 4 2
10 0 13 -4 5 -9 47 -15 103 -14 l33 1 -18 -27 c-9 -15 -20 -29 -24 -32 -9 -7
12 -80 23 -80 20 0 169 173 169 195 0 2 11 16 25 31 14 15 25 33 25 40 0 8 3
14 8 14 4 0 16 17 27 38 11 20 23 39 27 42 3 3 29 37 57 75 28 39 56 77 63 85
7 8 18 22 23 31 6 10 31 45 58 78 123 158 143 185 164 214 11 18 51 63 87 100
36 37 66 71 66 75 0 9 61 76 189 207 53 55 110 117 125 138 23 29 31 35 42 26
8 -6 14 -23 14 -36 0 -26 28 -93 39 -93 26 1 35 23 34 81 -2 48 2 65 15 76 26
20 116 70 227 128 55 29 144 75 198 103 53 28 97 48 97 45 0 -3 8 1 18 9 9 8
49 29 87 47 76 36 143 69 190 94 63 33 161 77 171 77 6 0 19 9 29 20 10 11 25
20 34 20 9 0 29 7 45 15 15 8 34 15 41 15 7 0 56 20 109 45 54 25 106 45 116
45 10 0 22 5 25 10 3 6 13 10 20 10 8 0 39 11 69 25 30 14 61 25 69 25 8 0 20
6 26 14 7 8 26 17 45 20 18 3 79 24 137 47 57 22 125 47 151 55 59 18 142 59
157 78 9 11 6 15 -16 19 -15 3 -35 1 -45 -4 -9 -5 -28 -9 -42 -9 -14 0 -54
-11 -88 -24 -63 -24 -166 -52 -180 -48 -5 1 -8 -2 -8 -8 0 -5 -7 -6 -17 -3
-10 4 -14 2 -9 -5 4 -6 -1 -10 -11 -10 -18 1 -123 -35 -155 -53 -10 -5 -26 -9
-36 -9 -10 0 -22 -4 -28 -8 -5 -5 -29 -15 -54 -22 -25 -7 -52 -19 -60 -26 -15
-12 -56 -27 -75 -28 -12 -1 -64 -21 -120 -46 -22 -10 -56 -25 -75 -33 -19 -8
-53 -23 -75 -33 -22 -10 -45 -18 -51 -19 -6 0 -18 -5 -25 -11 -8 -7 -23 -14
-35 -18 -11 -3 -102 -47 -202 -96 -101 -50 -189 -90 -197 -90 -7 0 -15 -3 -17
-7 -4 -9 -69 -47 -118 -70 -19 -8 -42 -19 -50 -24 -8 -5 -28 -16 -45 -24 -16
-8 -48 -25 -70 -38 -22 -13 -85 -47 -140 -77 -55 -29 -106 -60 -112 -69 -10
-13 -14 -14 -21 -3 -7 11 -11 7 -16 -12 -3 -14 -17 -31 -30 -38 -77 -42 -346
-310 -483 -483 -39 -49 -83 -103 -97 -120 -68 -81 -169 -212 -179 -232 -5 -13
-14 -23 -18 -23 -5 0 -21 -18 -35 -40 -23 -35 -29 -38 -48 -28 -11 6 -23 14
-26 17 -8 9 -40 29 -87 52 -24 12 -43 25 -43 29 0 4 -18 15 -40 25 -22 10 -47
26 -56 36 -10 11 -23 19 -29 19 -7 0 -15 7 -19 15 -3 8 -12 15 -19 15 -8 0
-34 16 -58 35 -24 19 -50 35 -56 35 -7 0 -13 4 -13 10 0 5 -15 16 -32 23 -18
8 -39 21 -47 30 -7 10 -20 17 -27 17 -8 0 -14 3 -14 8 0 4 -16 16 -35 26 -19
11 -50 39 -69 62 -18 24 -62 68 -97 97 -35 28 -75 62 -89 73 -14 12 -56 48
-95 80 -38 32 -82 73 -97 90 -16 18 -68 65 -116 106 -47 40 -111 98 -142 128
-101 101 -237 163 -380 175 -154 13 -252 10 -330 -10 -109 -27 -299 -115 -360
-166 -55 -48 -127 -147 -160 -221 -11 -26 -25 -50 -30 -53 -5 -3 -22 -29 -39
-58 -22 -40 -31 -69 -35 -122 -2 -39 -9 -97 -15 -130 -6 -33 -8 -67 -6 -75 2
-8 11 -81 20 -161 8 -81 21 -159 30 -175 8 -16 15 -33 15 -37 0 -5 11 -23 24
-40 13 -18 31 -48 40 -67 35 -76 82 -137 178 -234 37 -37 68 -73 68 -80 0 -22
199 -201 272 -244 15 -9 28 -20 28 -24 0 -4 5 -8 11 -8 7 0 30 -15 53 -33 23
-18 55 -39 71 -47 30 -14 253 -175 303 -218 15 -13 53 -44 85 -68 31 -25 72
-59 89 -75 18 -16 41 -32 50 -35 10 -3 18 -8 19 -12 0 -4 3 -16 5 -27 3 -11 7
-33 9 -50 3 -16 14 -42 25 -57 11 -15 20 -31 20 -35 0 -13 74 -93 105 -113 24
-15 42 -18 121 -13 103 5 107 4 239 -97 68 -52 76 -58 176 -125 41 -28 93 -64
115 -80 23 -17 52 -37 64 -45 12 -8 28 -20 34 -25 25 -24 104 -64 111 -57 5 4
5 2 2 -4 -4 -7 6 -17 23 -24 17 -7 30 -17 30 -22 0 -5 4 -7 8 -4 11 7 148 -90
263 -186 25 -21 50 -38 55 -38 6 0 21 -11 34 -25 13 -14 29 -25 35 -25 7 0 20
-9 30 -20 10 -11 27 -22 39 -26 11 -4 44 -25 71 -48 53 -44 69 -55 126 -85 19
-11 41 -27 48 -35 8 -9 20 -16 29 -16 9 0 25 -9 36 -19 22 -20 73 -57 186
-136 36 -25 76 -53 90 -63 14 -11 54 -38 90 -62 36 -24 67 -47 70 -50 7 -9
185 -132 223 -153 18 -11 55 -36 84 -58 29 -21 57 -39 62 -39 5 0 41 -23 78
-52 37 -28 78 -57 91 -64 13 -6 44 -31 70 -55 42 -39 85 -73 237 -185 22 -16
47 -33 56 -39 68 -43 89 -57 129 -84 25 -18 77 -52 115 -76 39 -24 75 -47 80
-52 9 -8 54 -39 183 -126 23 -15 42 -33 42 -38 0 -5 4 -9 10 -9 12 0 167 -109
200 -142 14 -13 46 -38 71 -55 45 -30 57 -40 114 -90 14 -12 25 -19 25 -16 0
4 14 -7 30 -24 17 -17 46 -38 64 -47 35 -16 60 -37 169 -140 34 -32 80 -71
102 -86 22 -15 58 -44 79 -65 22 -20 56 -48 75 -61 20 -13 63 -43 96 -67 104
-75 178 -127 225 -157 25 -16 50 -34 57 -40 7 -5 16 -10 21 -10 5 0 24 -13 42
-30 18 -16 37 -30 42 -30 4 0 29 -15 55 -34 27 -19 66 -44 88 -56 22 -12 52
-29 67 -38 14 -9 50 -32 80 -50 50 -31 175 -119 266 -187 22 -17 42 -41 45
-55 16 -78 32 -111 78 -160 19 -19 54 -48 78 -64 40 -26 53 -29 123 -28 60 1
87 6 111 21 29 17 36 18 69 6 21 -7 48 -19 60 -27 30 -19 163 -64 208 -71 19
-3 46 -10 60 -15 14 -5 30 -11 35 -12 6 -1 21 -7 35 -12 14 -6 41 -14 60 -18
19 -4 71 -17 115 -30 71 -19 101 -27 180 -47 11 -2 34 -6 50 -9 17 -2 54 -9
84 -14 65 -12 188 -12 216 0 16 7 13 9 -17 9 -43 1 -63 21 -21 21 31 0 233 17
285 24 18 3 60 8 93 12 33 4 63 8 68 10 4 1 13 2 20 3 9 1 8 4 -2 10 -8 5 -19
8 -25 6 -6 -2 -45 -6 -86 -9 -72 -5 -69 -4 66 27 78 18 148 38 155 44 11 9 78
22 124 25 50 3 265 99 265 118 0 5 8 11 18 15 11 3 43 24 73 47 30 22 45 37
34 33 -46 -17 -55 -18 -50 -3 3 8 21 20 39 26 19 7 50 31 70 52 26 29 36 35
36 23 1 -13 5 -10 16 10 8 15 19 25 23 22 5 -2 8 1 8 8 -1 6 9 33 21 59 21 45
23 63 24 260 2 223 -3 262 -46 390 -35 106 -86 188 -174 283 -39 42 -101 95
-110 95 -6 0 -12 4 -14 8 -3 8 -110 62 -123 62 -4 0 -21 6 -38 13 -53 23 -99
38 -152 52 -27 7 -61 17 -75 23 -14 5 -45 16 -70 23 -25 7 -75 28 -112 46 -36
18 -71 33 -76 33 -5 0 -15 7 -22 15 -7 8 -20 15 -30 15 -10 0 -23 6 -29 14 -6
7 -27 16 -46 19 -44 7 -172 67 -233 109 -53 37 -90 58 -103 58 -8 0 -72 39
-95 59 -6 5 -21 12 -34 16 -13 4 -45 21 -71 36 -25 16 -49 29 -52 29 -4 0 -30
15 -59 34 -29 18 -63 36 -75 40 -13 4 -23 12 -23 17 0 5 -7 9 -15 9 -12 0 -9
12 15 54 39 71 132 202 174 246 18 19 60 69 92 110 60 76 132 157 194 220 19
19 52 55 74 80 21 25 72 81 112 125 40 44 101 114 136 155 127 150 151 180
173 215 10 17 27 39 37 50 28 29 98 123 98 131 0 4 7 14 15 23 20 20 125 181
125 191 0 4 9 15 20 25 11 10 20 22 20 28 0 5 8 21 19 35 19 28 78 136 139
257 19 39 42 84 50 100 24 47 29 58 47 97 19 45 45 117 50 138 2 8 12 44 23
80 30 100 41 173 47 325 3 77 8 154 10 170 22 149 -16 560 -59 660 -8 16 -20
53 -26 80 -7 28 -19 62 -27 77 -7 15 -13 38 -13 52 0 14 -4 27 -9 30 -4 3 -11
19 -14 36 -4 17 -18 56 -32 87 -15 31 -29 69 -32 84 -3 16 -9 29 -13 29 -4 0
-13 19 -20 43 -8 23 -17 44 -21 47 -4 3 -17 30 -29 59 -11 30 -30 67 -41 82
-10 15 -33 54 -50 86 -16 32 -36 63 -43 68 -7 6 -15 18 -19 28 -3 9 -11 17
-16 17 -5 0 -26 25 -46 56 -21 31 -57 77 -81 102 -24 26 -44 50 -44 53 0 21
-280 304 -309 314 -10 3 -26 14 -36 25 -10 11 -22 20 -26 20 -4 0 -40 20 -81
45 -40 25 -98 57 -128 71 -30 15 -64 34 -75 44 -52 44 -306 144 -447 175 -81
18 -198 57 -198 67 0 4 -9 8 -20 8 -64 0 -142 77 -201 197 l-36 74 18 97 c10
53 26 131 34 172 9 41 18 89 21 105 2 17 9 59 14 95 25 157 33 269 32 465 0
300 -15 465 -42 465 -17 0 -22 -63 -26 -300 -2 -135 -6 -272 -9 -305 -3 -33
-8 -85 -10 -115 -7 -95 -24 -222 -41 -305 -8 -44 -18 -93 -21 -110 -23 -139
-46 -276 -50 -305 -2 -19 -8 -46 -13 -60 -10 -26 -23 -131 -21 -165 1 -30 -39
-342 -50 -394 -6 -25 -17 -66 -25 -91 -7 -25 -25 -103 -39 -175 -29 -148 -82
-361 -96 -387 -5 -10 -9 -29 -9 -43 0 -14 -8 -40 -17 -58 -9 -18 -16 -36 -15
-41 2 -5 -9 -45 -23 -90 -14 -44 -33 -103 -41 -131 -9 -27 -19 -59 -24 -70 -4
-11 -20 -60 -35 -110 -15 -49 -34 -110 -42 -135 -8 -25 -18 -63 -23 -85 -4
-22 -22 -78 -39 -125 -17 -47 -29 -90 -27 -97 3 -7 1 -15 -4 -18 -6 -4 -10
-14 -10 -24 0 -10 -7 -32 -15 -47 -8 -16 -15 -39 -15 -51 0 -12 -4 -24 -9 -27
-5 -3 -17 -37 -27 -76 -10 -38 -21 -70 -26 -70 -4 0 -8 -9 -8 -20 0 -24 -28
-145 -40 -175 -4 -11 -14 -40 -21 -65 -7 -25 -16 -49 -19 -55 -4 -5 -15 -41
-25 -80 -10 -38 -33 -104 -50 -146 -18 -42 -46 -123 -64 -180 -18 -57 -38
-117 -46 -132 -8 -16 -15 -36 -15 -46 0 -9 -5 -22 -11 -28 -19 -19 -6 -57 21
-63 16 -4 31 -19 44 -45 10 -22 21 -42 25 -45 46 -35 171 -268 171 -320 0 -9
3 -20 6 -23 9 -8 42 -101 54 -147 5 -19 25 -80 44 -135 19 -55 35 -108 36
-118 0 -9 4 -25 9 -35 23 -46 77 -321 86 -434 3 -42 7 -94 10 -115 10 -94 25
-245 30 -318 4 -44 8 -105 10 -135 3 -30 10 -84 16 -120 10 -60 20 -98 65
-253 10 -32 29 -71 44 -87 15 -17 30 -37 34 -45 3 -8 12 -15 19 -15 8 0 25
-21 38 -47 13 -25 35 -61 49 -79 14 -18 43 -58 65 -89 22 -30 52 -72 68 -92
15 -19 27 -42 27 -49 0 -8 4 -14 10 -14 5 0 25 -30 43 -68 18 -37 43 -83 55
-102 26 -41 38 -84 46 -160 5 -48 4 -51 -5 -25 -27 70 -50 72 -108 10 -39 -42
-43 -51 -43 -96 1 -50 1 -50 -30 -47 -27 3 -31 7 -33 38 -2 35 -28 108 -84
234 -17 37 -31 78 -31 89 0 50 -52 182 -82 211 -17 15 -22 16 -29 5 -5 -8 -9
-18 -9 -22 0 -5 -4 -6 -8 -3 -9 5 15 -199 43 -364 12 -69 22 -102 38 -118 l22
-24 -30 -24 -30 -24 -13 53 c-8 28 -21 60 -29 70 -19 20 -52 23 -57 4 -18 -63
-30 -97 -35 -97 -3 0 -24 5 -46 10 l-40 9 36 -32 c25 -22 40 -46 47 -77 16
-69 36 -249 28 -257 -7 -8 -112 42 -122 58 -6 10 -50 31 -67 33 -4 1 -11 6
-15 12 -4 6 -33 27 -64 47 -32 20 -58 41 -58 47 0 5 -7 10 -16 10 -15 0 -16
10 -11 78 7 95 13 114 41 111 37 -5 63 10 69 39 3 15 8 56 12 92 4 36 11 79
15 95 5 17 11 46 14 65 18 120 45 185 46 108 3 -209 10 -299 24 -320 9 -12 16
-29 16 -38 0 -9 7 -26 17 -39 l16 -24 14 27 c15 28 10 118 -18 326 -9 73 -44
170 -61 170 -4 0 -8 9 -8 21 0 16 -4 19 -22 14 -37 -11 -45 -29 -68 -153 -12
-64 -30 -142 -40 -173 -27 -80 -34 -133 -21 -158 10 -17 9 -21 -4 -21 -11 0
-15 11 -15 39 0 31 -4 41 -20 46 -11 3 -20 10 -20 14 0 12 -77 44 -88 37 -6
-3 -14 -32 -18 -63 l-7 -56 -15 28 c-25 48 -31 83 -21 118 5 17 11 46 14 62 2
17 7 53 11 80 3 28 8 71 9 98 2 26 10 58 19 71 54 83 86 169 89 238 0 23 7 54
13 66 11 21 7 33 -27 95 -22 40 -49 92 -60 117 -31 65 -38 78 -130 245 -21 39
-44 81 -50 95 -32 71 -51 111 -84 168 -19 35 -35 74 -35 87 0 13 -4 26 -9 29
-12 8 -61 110 -61 129 0 8 -4 17 -8 19 -4 2 -23 35 -40 73 -18 39 -37 78 -42
87 -6 10 -10 24 -10 31 0 7 -11 35 -24 63 -54 114 -86 185 -86 194 0 4 -8 25
-19 47 -32 66 -81 187 -81 201 0 8 -6 28 -13 45 -8 18 -19 48 -26 67 -93 271
-107 334 -115 497 -4 77 -2 104 8 112 9 8 12 26 9 54 -3 24 2 94 11 156 10 62
15 115 12 118 -3 3 -1 16 4 29 5 12 11 51 14 86 6 67 8 87 27 238 6 52 13 104
14 115 1 11 5 27 8 35 3 8 11 67 17 130 10 100 26 202 45 290 3 14 10 50 15
80 5 30 15 78 21 105 6 28 11 58 11 67 -1 10 3 20 9 23 5 4 9 15 9 27 0 27 30
159 41 180 4 9 13 45 19 80 20 112 22 122 35 163 7 22 21 67 30 100 9 33 23
80 31 105 8 25 16 76 19 113 3 38 7 73 11 78 3 5 -7 10 -23 11 -15 0 -32 2
-38 3 -5 2 -18 3 -27 4 -10 0 -18 8 -18 16 0 8 -4 15 -9 15 -5 0 -11 13 -14
30 -6 26 -40 86 -99 173 -15 21 -18 38 -13 65 3 20 8 55 10 77 9 83 42 276 44
258 0 -7 17 -29 36 -50 26 -28 31 -39 20 -41 -48 -11 25 -70 150 -122 11 -5
34 -11 50 -14 l30 -6 -25 14 c-24 14 -24 15 25 18 l50 3 -61 42 c-34 23 -69
49 -77 58 -9 8 -18 15 -21 15 -7 0 -106 101 -106 109 0 3 -16 24 -36 45 -19
22 -33 45 -30 52 3 7 8 51 12 99 4 47 11 88 15 91 5 3 9 -6 9 -20 0 -14 4 -26
9 -26 13 0 22 106 20 235 -1 64 1 119 5 122 3 4 6 1 6 -5 0 -17 59 -71 86 -78
13 -3 24 -10 24 -15 0 -5 12 -14 28 -20 15 -6 41 -17 57 -26 19 -10 58 -17
105 -18 l75 -1 -4 -60 c-1 -32 -5 -62 -8 -66 -2 -4 -8 -31 -13 -60 -5 -29 -19
-102 -30 -163 -12 -60 -23 -119 -25 -130 -32 -176 -45 -229 -55 -235 -7 -4
-10 -14 -8 -21 3 -8 0 -25 -7 -39 -7 -14 -18 -45 -25 -70 -7 -25 -25 -64 -40
-88 -32 -48 -47 -112 -32 -138 9 -16 12 -15 36 9 28 28 65 105 71 147 2 14 11
45 20 69 8 25 22 72 31 105 8 34 19 70 23 81 10 23 27 106 36 180 3 28 15 94
26 149 10 54 22 148 26 210 13 183 3 1070 -11 1095 -2 3 -7 35 -10 71 -4 36
-11 90 -16 120 -15 85 -29 444 -27 662 1 108 0 195 -3 193 -3 -2 -4 18 -3 43
2 26 -1 77 -7 113 -5 36 -12 122 -15 190 -4 68 -12 147 -19 176 -18 69 -8 77
62 54 29 -10 55 -21 58 -23 3 -3 23 -4 45 -1 25 4 39 2 39 -6 0 -6 23 -22 50
-36 28 -14 50 -30 50 -35 0 -6 7 -10 14 -10 8 0 36 -11 62 -25 26 -14 54 -25
62 -25 9 0 35 -9 58 -20 29 -14 69 -22 128 -25 82 -4 88 -3 108 20 12 14 28
25 35 25 7 0 18 9 25 21 7 11 29 28 48 37 19 9 46 26 60 38 14 12 36 32 50 44
14 12 18 18 10 14 -8 -4 -1 8 15 27 17 19 42 53 55 75 13 21 27 41 30 44 20
17 41 66 37 84 -3 11 -17 67 -30 123 -14 57 -33 117 -44 135 -19 32 -98 96
-120 97 -7 1 -13 5 -13 9 0 4 -16 25 -35 46 -19 21 -35 44 -35 52 0 7 -8 19
-18 26 -38 28 -119 149 -177 264 -33 67 -65 128 -71 135 -5 8 -16 32 -23 54
-39 117 -168 320 -233 366 l-29 21 6 -26z m-547 -1325 c18 -1 31 -5 28 -10 -6
-9 16 -21 39 -21 7 0 34 -9 59 -20 26 -11 48 -20 51 -20 3 0 22 -9 42 -20 21
-11 43 -20 50 -20 7 0 27 -9 45 -21 28 -17 29 -19 8 -14 -14 4 -29 11 -35 15
-14 10 -118 45 -127 42 -5 -1 -8 1 -8 6 0 9 -96 9 -106 -1 -4 -4 0 -7 8 -7 9
0 21 -7 28 -15 7 -8 19 -15 27 -15 8 0 34 -9 58 -20 45 -20 45 -20 25 -40 -11
-11 -20 -27 -20 -36 0 -44 34 -224 40 -214 5 7 11 -11 15 -41 4 -30 12 -65 17
-79 6 -14 12 -144 14 -290 2 -146 5 -284 8 -307 5 -48 5 -48 -61 -32 -142 34
-201 56 -238 90 -30 28 -218 159 -227 159 -4 0 -8 -5 -8 -11 0 -6 -12 -1 -26
10 -15 12 -35 21 -45 21 -13 0 -19 7 -19 23 0 16 -3 18 -9 9 -6 -10 -10 -4
-15 20 -13 63 -44 253 -52 313 -3 33 -8 74 -10 90 -2 17 -6 113 -9 215 l-5
185 57 27 c52 23 67 26 138 21 44 -2 97 -1 118 4 20 4 54 7 75 6 20 -1 52 -2
70 -2z m269 -483 c-3 -8 -6 -5 -6 6 -1 11 2 17 5 13 3 -3 4 -12 1 -19z m-532
-576 c20 -19 55 -43 78 -53 23 -11 62 -32 87 -46 82 -48 220 -72 315 -54 l47
9 -6 -102 c-4 -55 -9 -114 -11 -131 -2 -16 -6 -86 -9 -155 -5 -133 4 -87 19
100 4 52 11 127 14 165 l6 70 12 -65 c7 -36 15 -123 18 -195 5 -120 11 -207
20 -295 2 -19 6 -129 10 -245 3 -115 7 -239 10 -275 12 -178 17 -420 9 -420
-48 1 -244 81 -244 100 0 5 -5 10 -11 10 -15 0 -109 101 -109 117 0 7 -6 13
-14 13 -11 0 -14 27 -15 135 -1 75 -4 143 -7 153 -2 10 -1 8 5 -3 14 -30 48
-145 57 -190 7 -40 33 -109 33 -90 0 6 -4 28 -9 51 -5 22 -16 76 -24 120 -26
135 -54 254 -92 383 l-7 24 39 -27 c21 -14 43 -26 47 -26 5 0 23 -6 40 -14 69
-30 94 -36 157 -38 36 0 76 4 90 10 23 10 22 11 -19 11 -54 1 -94 14 -186 58
-140 67 -205 115 -205 152 0 10 -18 70 -41 133 -22 62 -42 121 -44 130 -2 9
-9 26 -15 37 -6 12 -8 21 -5 21 3 0 1 8 -4 18 -6 10 -20 66 -32 123 -12 57
-29 142 -39 189 -10 47 -21 98 -25 114 -9 34 3 30 60 -22z m48 -552 c3 -11 1
-18 -4 -14 -5 3 -9 12 -9 20 0 20 7 17 13 -6z m1607 -1265 c16 -36 33 -65 38
-65 5 0 24 -20 42 -45 19 -25 55 -59 80 -75 44 -28 225 -82 335 -99 81 -13
265 -78 285 -100 9 -10 115 -61 126 -61 7 0 17 -6 23 -14 7 -8 47 -32 89 -53
138 -68 305 -207 407 -338 29 -37 110 -131 165 -190 32 -36 110 -147 110 -158
0 -4 18 -32 40 -62 22 -30 40 -57 40 -61 0 -5 18 -38 39 -74 22 -36 43 -79 47
-96 3 -16 12 -38 19 -49 21 -34 121 -296 139 -365 9 -36 20 -72 23 -80 9 -21
9 -21 18 -65 4 -22 12 -49 18 -59 16 -32 33 -188 25 -231 -8 -43 -10 -271 -3
-345 2 -25 0 -67 -5 -95 -6 -27 -12 -90 -14 -140 -3 -49 -9 -112 -14 -140 -10
-47 -16 -67 -48 -142 -8 -17 -17 -45 -20 -62 -4 -17 -11 -34 -15 -37 -5 -3 -9
-16 -9 -30 0 -13 -5 -24 -11 -24 -5 0 -17 -17 -25 -37 -9 -21 -31 -70 -50
-110 -19 -40 -34 -76 -34 -80 0 -5 -11 -25 -25 -45 -14 -20 -25 -44 -25 -52 0
-8 -3 -16 -8 -18 -9 -4 -82 -126 -82 -137 0 -5 -6 -14 -14 -20 -8 -7 -24 -31
-36 -54 -12 -23 -32 -54 -44 -69 -30 -38 -61 -82 -61 -88 -1 -7 -63 -95 -102
-144 -18 -23 -45 -58 -60 -80 -16 -21 -39 -51 -53 -66 -56 -61 -130 -149 -130
-155 0 -3 -12 -18 -27 -33 -16 -15 -61 -65 -102 -111 -40 -46 -89 -98 -107
-115 -19 -17 -34 -36 -34 -41 0 -6 -24 -36 -52 -66 -29 -31 -75 -82 -103 -114
-27 -32 -57 -65 -66 -74 -8 -9 -33 -38 -55 -66 -21 -27 -45 -56 -52 -63 -7 -8
-25 -30 -40 -50 -15 -21 -33 -41 -39 -45 -7 -4 -13 -15 -13 -22 0 -8 -8 -23
-19 -34 -10 -10 -31 -41 -46 -68 -21 -39 -31 -50 -46 -46 -10 3 -19 8 -19 11
0 5 59 121 101 197 15 28 44 81 64 119 21 38 45 81 54 95 10 14 39 59 66 100
53 83 125 171 201 246 28 28 76 88 108 135 32 47 71 101 87 121 16 20 29 40
29 43 0 3 8 14 18 25 35 38 113 151 159 233 74 128 189 384 213 473 12 43 23
82 25 85 3 4 9 47 15 96 5 49 12 100 14 114 15 92 19 150 21 350 3 217 -14
552 -34 675 -17 103 -39 166 -95 280 -30 61 -67 139 -82 175 -35 86 -108 223
-136 255 -12 14 -31 40 -42 59 -112 184 -127 203 -231 280 -66 49 -260 168
-315 193 -58 27 -230 97 -242 99 -5 1 -9 2 -10 4 -7 5 -133 30 -203 40 -33 5
-107 16 -165 25 -58 9 -121 17 -140 19 -54 6 -90 26 -90 51 0 11 15 75 33 140
40 143 70 264 83 330 2 11 11 85 19 165 9 80 18 152 19 160 2 8 6 41 11 73 4
31 9 57 11 57 2 0 18 -29 34 -65z m-1592 -950 c6 -11 14 -36 17 -56 3 -21 12
-42 20 -49 8 -7 13 -16 10 -20 -6 -9 104 -114 112 -107 3 4 -4 22 -15 41 l-21
35 25 -9 c14 -6 27 -10 29 -10 8 0 -8 35 -23 53 -8 9 -12 20 -9 24 4 3 7 1 7
-6 0 -6 11 -16 25 -21 26 -10 31 -28 16 -58 -9 -17 -30 -83 -35 -112 -2 -8 -6
-22 -9 -30 -3 -8 -13 -51 -22 -95 -9 -44 -25 -105 -35 -135 -11 -30 -21 -66
-23 -80 -2 -14 -6 -32 -10 -40 -7 -20 -18 -67 -24 -105 -2 -16 -8 -43 -13 -60
-6 -16 -12 -43 -14 -60 -2 -16 -12 -66 -23 -110 -19 -74 -35 -158 -48 -245 -3
-19 -11 -62 -17 -95 -6 -33 -10 -73 -9 -88 1 -15 -3 -36 -9 -46 -5 -10 -12
-47 -14 -82 -3 -35 -7 -71 -10 -79 -2 -8 -7 -42 -10 -74 -4 -33 -10 -87 -16
-120 -5 -34 -11 -88 -13 -122 -2 -33 -7 -65 -10 -71 -4 -7 -7 -24 -7 -40 1
-15 -4 -80 -9 -143 -13 -138 -5 -425 15 -572 14 -97 40 -198 57 -215 4 -3 7
-17 7 -30 0 -13 6 -39 14 -58 13 -31 13 -33 -2 -27 -9 3 -37 20 -62 38 -25 18
-63 42 -85 54 -34 18 -115 71 -150 98 -48 36 -126 88 -164 109 -46 26 -119 75
-150 103 -9 8 -30 22 -46 30 -17 8 -34 21 -38 27 -4 7 -13 13 -20 13 -7 1 -28
14 -47 30 -19 17 -39 30 -44 30 -5 0 -17 6 -25 14 -9 8 -42 29 -75 46 -32 18
-66 39 -75 46 -31 26 -86 64 -138 95 -29 17 -53 35 -53 40 0 5 -4 9 -10 9 -11
0 -112 60 -120 71 -9 13 -77 57 -98 63 -11 4 -33 17 -48 29 -37 28 -118 77
-169 101 -22 11 -42 22 -45 26 -3 4 -31 22 -62 40 -32 17 -61 36 -64 41 -3 5
-11 9 -18 9 -7 0 -44 21 -82 46 -38 25 -89 56 -114 69 -26 13 -52 30 -59 39
-7 9 -17 14 -21 11 -4 -3 -13 2 -20 10 -7 8 -18 15 -24 15 -6 0 -29 12 -51 27
-22 15 -65 41 -96 58 -30 16 -74 43 -97 58 -24 15 -62 37 -85 49 -23 12 -50
28 -59 35 -17 15 -68 44 -145 85 -24 12 -43 24 -43 27 0 13 17 28 45 43 86 43
117 62 122 74 3 8 10 14 16 14 12 0 86 48 102 66 6 6 46 39 90 72 150 114 198
159 225 212 10 19 31 48 46 64 30 32 58 82 68 121 4 16 11 22 21 19 8 -4 39 2
68 11 28 10 68 21 87 26 49 11 113 35 195 74 38 19 84 37 100 41 17 4 39 13
50 20 11 7 35 15 53 17 18 3 38 10 45 15 7 5 37 17 67 26 30 10 62 20 70 23 8
3 22 7 30 9 18 3 219 83 240 95 8 5 22 12 30 15 67 26 173 72 209 91 24 13 50
23 57 23 8 0 14 4 14 9 0 5 16 12 35 15 20 4 58 20 86 37 27 16 53 29 57 29 4
0 29 11 57 24 75 37 146 66 160 66 7 0 18 7 25 15 7 8 21 15 32 15 11 0 37 9
57 19 20 11 56 28 81 39 25 11 65 29 90 40 l45 20 6 -27 c3 -14 11 -35 17 -46z
m-5128 11 c0 -2 -7 -6 -15 -10 -8 -3 -15 -1 -15 4 0 6 7 10 15 10 8 0 15 -2
15 -4z m177 -12 c-3 -3 -12 -4 -19 -1 -8 3 -5 6 6 6 11 1 17 -2 13 -5z m6423
-43 c36 -5 131 -20 212 -33 l148 -23 -6 -35 c-3 -19 -13 -59 -21 -87 l-14 -53
-137 -1 c-142 0 -186 -5 -286 -33 -33 -9 -61 -14 -63 -12 -2 1 3 21 11 44 8
22 12 43 9 46 -3 3 -1 11 5 18 13 16 42 169 35 182 -4 5 4 6 18 3 13 -3 53
-10 89 -16z m513 -98 c15 -7 27 -11 27 -9 0 3 25 -6 55 -20 31 -13 60 -24 65
-24 6 0 27 -10 48 -23 20 -13 66 -39 102 -57 36 -19 74 -41 85 -50 11 -9 40
-28 65 -43 62 -35 153 -119 203 -186 41 -54 70 -103 65 -105 -2 -1 -16 -6 -33
-12 -20 -6 -31 -18 -35 -35 -3 -14 -23 -49 -44 -77 -38 -50 -60 -57 -71 -24
-2 10 -16 31 -30 47 -14 17 -33 40 -43 52 -48 63 -285 281 -329 304 -16 8 -48
28 -73 45 -46 33 -125 64 -160 64 -19 0 -28 15 -12 22 16 7 38 94 32 125 -7
31 -7 32 24 26 17 -3 43 -12 59 -20z m-135 -226 c66 -19 114 -42 167 -83 18
-13 37 -24 43 -24 7 0 12 -4 12 -8 0 -5 9 -13 19 -18 17 -8 164 -137 216 -190
107 -109 218 -246 247 -304 6 -14 24 -38 38 -55 15 -16 33 -46 40 -65 8 -19
21 -46 29 -60 9 -13 21 -38 27 -55 7 -16 24 -61 39 -100 47 -122 102 -291 110
-341 2 -16 11 -61 19 -99 32 -156 49 -473 34 -640 -7 -89 -50 -245 -94 -340
-12 -27 -36 -84 -52 -125 -41 -103 -128 -290 -160 -346 -25 -42 -45 -77 -109
-192 -12 -22 -54 -77 -93 -122 -83 -97 -180 -223 -204 -265 -9 -16 -32 -50
-51 -75 -19 -25 -40 -56 -48 -70 -8 -14 -39 -68 -69 -120 -31 -52 -64 -111
-74 -131 -79 -154 -100 -189 -110 -189 -6 0 -25 13 -40 29 -16 16 -53 41 -82
56 -29 15 -56 32 -60 39 -4 6 -24 19 -44 30 -20 10 -63 38 -94 62 -32 23 -60
42 -63 41 -4 -1 -22 10 -42 26 -20 15 -41 27 -47 27 -7 0 -12 5 -12 10 0 6 -4
10 -9 10 -14 0 -141 87 -166 114 -24 26 -32 66 -26 133 3 38 -27 202 -60 328
-17 66 -35 140 -40 165 -8 42 -18 74 -39 125 -5 11 -27 81 -50 155 -23 74 -46
143 -51 152 -5 10 -9 25 -9 33 0 8 -4 23 -9 33 -16 28 -61 130 -61 136 0 3 -8
14 -17 24 -10 11 -36 43 -58 72 -22 29 -46 58 -53 66 -7 7 -19 29 -27 48 -8
19 -19 36 -24 38 -10 3 -1 35 31 108 9 19 19 51 23 70 4 19 14 49 23 65 9 17
17 36 18 44 2 7 7 18 13 24 6 6 11 20 11 32 0 11 6 29 13 40 7 11 24 58 37
105 12 47 26 90 30 95 4 6 11 26 15 45 4 19 11 40 16 45 4 6 17 51 29 100 41
175 47 201 65 250 10 28 24 62 31 77 8 14 14 34 14 44 0 10 13 57 29 104 33
96 45 141 42 154 -1 4 2 13 7 20 6 6 13 27 17 46 4 19 11 41 15 50 12 23 40
120 40 139 0 9 6 25 14 36 7 11 19 45 25 75 7 30 19 73 26 95 8 22 24 72 35
111 l22 71 52 7 c29 3 69 11 89 18 57 20 346 16 425 -5z m925 -397 c19 -23
147 -283 147 -298 0 -7 23 -57 51 -112 55 -108 87 -209 95 -298 2 -31 9 -102
14 -156 9 -105 8 -116 -16 -116 -18 0 -84 -41 -104 -65 -14 -17 -16 -15 -23
21 -26 131 -38 193 -43 219 -3 17 -9 39 -13 50 -5 11 -16 47 -25 80 -30 105
-132 340 -170 390 -13 17 -27 41 -31 55 -4 14 -20 43 -36 64 -16 22 -29 43
-29 47 0 4 22 30 49 58 27 28 53 61 57 73 13 45 26 52 47 27 10 -13 24 -31 30
-39z m-7175 -737 c-10 -2 -28 -2 -40 0 -13 2 -5 4 17 4 22 1 32 -1 23 -4z m65
-10 c-7 -2 -19 -2 -25 0 -7 3 -2 5 12 5 14 0 19 -2 13 -5z m7431 -734 c-1 -3
-4 -32 -5 -65 -1 -32 -6 -72 -10 -89 -4 -16 -12 -70 -18 -120 -5 -49 -24 -137
-42 -195 -51 -165 -239 -520 -331 -625 -5 -6 -20 2 -38 22 l-30 32 50 91 c27
49 50 93 50 96 0 4 15 39 34 78 79 163 188 453 202 531 2 17 7 39 11 49 9 30
5 310 -6 421 l-10 100 67 65 67 65 6 -225 c4 -124 5 -228 3 -231z m-7406 -282
c17 -14 -2 -27 -41 -27 -30 0 -87 49 -87 75 0 6 -9 22 -20 35 -40 46 -19 40
58 -16 42 -31 83 -61 90 -67z m6929 -865 c22 -14 22 -14 -43 -110 -36 -53 -92
-124 -123 -157 -58 -61 -130 -142 -166 -186 -32 -38 -132 -194 -150 -231 -14
-31 -28 -57 -120 -223 -21 -38 -48 -87 -59 -108 -20 -38 -32 -42 -49 -16 -10
16 -6 24 85 199 109 207 261 431 457 672 46 57 92 122 102 146 13 29 23 41 31
36 7 -4 23 -14 35 -22z m-1413 -677 c18 -14 37 -25 43 -25 5 0 28 -13 49 -28
21 -15 53 -34 70 -40 16 -7 41 -23 55 -35 13 -12 44 -33 69 -46 44 -24 71 -42
180 -122 30 -22 70 -46 88 -54 41 -18 48 -35 26 -76 -9 -18 -21 -47 -26 -63
-63 -203 -60 -296 23 -606 22 -82 26 -92 58 -163 11 -26 21 -54 21 -62 0 -8 3
-15 8 -15 4 0 16 -14 27 -30 18 -27 77 -77 61 -52 -3 5 1 13 10 16 12 4 14 15
9 48 -9 57 -14 201 -9 210 3 5 23 -6 45 -24 45 -36 71 -31 77 13 2 13 8 29 13
35 13 16 -6 61 -28 68 -10 3 -36 4 -58 2 -39 -3 -41 -2 -39 24 1 15 4 40 8 56
3 16 8 61 11 99 8 87 36 261 51 312 3 13 79 -22 114 -53 9 -7 31 -21 50 -29
19 -9 67 -34 105 -56 39 -21 95 -51 125 -67 30 -15 57 -30 58 -34 2 -5 8 -8
13 -8 5 0 32 -15 61 -33 29 -18 64 -38 78 -45 14 -7 41 -22 60 -34 19 -12 80
-44 135 -73 55 -28 111 -58 125 -67 14 -9 52 -26 85 -37 33 -11 85 -29 115
-41 30 -11 64 -20 75 -20 22 0 91 -23 101 -33 4 -4 20 -7 34 -7 15 0 33 -6 39
-14 7 -8 27 -18 44 -22 81 -17 185 -81 260 -158 96 -101 180 -271 176 -356
l-2 -25 -4 25 c-7 41 -36 134 -46 148 -27 35 -33 -11 -13 -113 2 -11 7 -55 11
-97 6 -75 24 -108 26 -50 0 21 3 17 13 -18 6 -25 9 -56 7 -70 -4 -24 -5 -24
-13 7 -5 18 -12 34 -17 37 -18 12 -42 -21 -46 -64 -7 -72 21 -150 38 -107 3 6
6 3 6 -9 1 -18 -52 -114 -63 -114 -3 0 2 17 10 37 15 34 15 36 0 24 -14 -12
-18 -11 -29 3 -12 16 -16 15 -53 -12 -61 -45 -87 -81 -72 -100 8 -10 9 -13 2
-9 -7 4 -18 -1 -25 -10 -8 -9 -9 -14 -4 -11 6 3 10 -6 11 -22 1 -18 -5 -31
-15 -34 -9 -3 -23 -9 -31 -14 -49 -30 -143 -73 -152 -70 -6 2 9 17 33 33 68
46 86 54 110 48 17 -5 20 -3 14 7 -6 9 -4 11 6 5 11 -6 11 -5 3 4 -9 10 -24 7
-68 -13 -30 -14 -67 -28 -81 -32 -14 -3 -28 -11 -31 -16 -4 -6 2 -7 17 -3 37
11 21 1 -56 -38 -40 -20 -93 -38 -125 -42 -30 -4 -58 -9 -61 -11 -8 -4 -341
-44 -367 -44 -49 1 63 32 165 46 17 2 58 13 90 23 54 18 56 19 23 20 -19 0
-51 -3 -70 -9 -19 -5 -54 -11 -77 -12 -22 -2 -40 -5 -38 -8 2 -3 -20 -6 -49
-6 -71 -2 -158 -29 -195 -60 -59 -49 -248 -53 -446 -9 -38 8 -80 18 -92 20
-12 3 -33 9 -46 14 -12 5 -59 12 -102 16 -44 5 -74 10 -66 13 11 4 -98 82
-116 82 -13 0 -258 125 -273 139 -8 9 -49 38 -90 65 -41 27 -80 54 -85 60 -19
20 -143 86 -161 86 -24 0 -22 32 7 102 17 40 33 98 36 128 6 67 20 100 44 100
31 0 37 31 35 158 l-3 122 38 -96 c22 -53 46 -110 55 -127 9 -18 20 -39 24
-47 4 -9 26 -17 56 -20 44 -5 51 -8 66 -40 9 -19 22 -75 29 -125 6 -49 15 -93
19 -98 17 -19 99 258 84 284 -2 4 3 24 12 45 12 29 15 57 10 119 -7 107 -33
189 -97 313 -66 128 -70 135 -97 169 -68 90 -102 138 -102 145 0 5 -5 14 -10
21 -67 81 -128 182 -149 247 -13 41 -30 92 -38 114 -7 21 -12 41 -9 44 3 2 1
13 -4 22 -9 18 -30 163 -35 250 -2 25 -6 87 -10 138 -5 50 -5 92 -1 92 4 0 22
-11 40 -25z m690 -451 c3 -8 -3 -33 -14 -54 -24 -48 -59 -192 -66 -274 -3 -33
-7 -62 -9 -64 -9 -10 -17 98 -12 172 8 116 49 236 82 236 7 0 16 -7 19 -16z
m97 -54 c10 0 1 -48 -12 -65 -10 -13 -25 -83 -33 -150 -3 -27 -11 -95 -17
-150 -6 -55 -12 -112 -13 -127 -6 -73 -6 -74 -16 -58 -14 24 -20 248 -9 330
14 103 58 232 77 225 7 -3 18 -5 23 -5z m-688 -1932 c-10 -50 35 -71 68 -32 9
11 18 8 53 -18 22 -17 45 -35 50 -40 15 -12 -24 -48 -54 -48 -37 0 -126 47
-149 79 -11 15 -31 52 -44 83 l-25 57 53 -26 c50 -25 53 -29 48 -55z m597 -18
c8 -5 11 -10 5 -10 -5 0 -17 5 -25 10 -8 5 -10 10 -5 10 6 0 17 -5 25 -10z
m897 -66 c-3 -3 -12 -4 -19 -1 -8 3 -5 6 6 6 11 1 17 -2 13 -5z m156 -251 c-7
-2 -21 -2 -30 0 -10 3 -4 5 12 5 17 0 24 -2 18 -5z m-380 -20 c-7 -2 -21 -2
-30 0 -10 3 -4 5 12 5 17 0 24 -2 18 -5z"/>
<path d="M21716 5749 c-31 -24 -33 -49 -6 -74 19 -17 22 -17 65 -1 38 15 45
22 45 45 0 15 -5 32 -12 39 -18 18 -62 14 -92 -9z"/>
<path d="M20287 15584 c1 -21 13 -53 26 -73 13 -20 40 -61 60 -92 20 -30 37
-59 37 -63 0 -4 9 -21 21 -37 23 -33 55 -38 64 -10 8 25 -11 69 -74 170 -28
45 -51 86 -51 89 -1 10 -41 38 -66 46 -18 6 -20 3 -17 -30z"/>
<path d="M20594 15510 c6 -98 15 -148 27 -155 26 -16 28 68 3 160 -24 96 -37
93 -30 -5z"/>
<path d="M20260 15125 c-16 -20 -13 -26 49 -79 59 -50 85 -57 101 -27 16 31
13 38 -41 81 -53 42 -88 50 -109 25z"/>
<path d="M21114 14540 c-10 -10 -8 -30 12 -138 4 -19 10 -23 32 -20 24 3 27 7
26 40 -2 48 -32 128 -48 128 -7 0 -17 -5 -22 -10z"/>
<path d="M21785 14400 c-4 -6 -3 -16 2 -21 15 -15 123 -41 140 -34 9 3 22 0
29 -6 8 -6 20 -9 28 -6 8 3 38 -1 67 -8 29 -8 56 -12 61 -9 4 3 35 0 68 -6 77
-14 114 -19 165 -24 22 -3 51 -7 65 -10 27 -6 74 -13 155 -22 28 -3 55 -10 61
-15 7 -5 25 -9 40 -8 16 1 63 -4 104 -10 79 -11 264 -30 365 -36 33 -3 123 -9
200 -15 195 -14 325 -22 359 -21 31 2 248 -17 281 -23 11 -3 23 -5 28 -5 4 -1
7 -12 7 -25 0 -46 42 -44 58 3 9 24 14 27 45 23 l36 -4 3 -72 c3 -70 4 -71 31
-74 46 -5 60 14 55 76 -5 59 11 80 37 46 12 -16 17 -17 34 -6 24 14 65 16 89
3 30 -16 204 -23 427 -17 130 4 369 -13 490 -34 117 -20 152 -23 380 -35 61
-3 124 -7 140 -10 17 -3 46 -7 65 -10 19 -2 46 -7 60 -10 32 -7 148 -26 180
-30 14 -2 52 -8 85 -14 121 -20 301 -43 335 -42 25 0 46 5 215 55 50 15 113
29 140 32 28 3 93 14 145 25 52 10 122 21 155 24 114 12 133 22 59 31 -93 12
-175 11 -254 -3 -47 -9 -121 -19 -165 -23 -44 -4 -93 -12 -110 -18 -190 -72
-202 -74 -309 -51 -50 11 -116 24 -146 29 -30 6 -80 15 -110 20 -30 6 -81 15
-112 20 -32 4 -61 11 -67 14 -5 3 -25 8 -45 10 -20 3 -51 8 -70 11 -49 10 -84
12 -241 20 -77 3 -162 10 -190 15 -27 6 -66 12 -85 14 -19 2 -75 9 -125 16
-106 13 -299 21 -477 19 -177 -2 -180 -2 -395 4 -106 3 -196 8 -201 11 -4 2
-37 7 -73 10 -89 8 -180 18 -204 22 -11 2 -49 7 -85 10 -36 3 -85 9 -110 13
-25 5 -94 9 -155 10 -60 2 -112 4 -116 7 -4 2 -47 6 -97 8 -49 2 -109 7 -133
10 -74 10 -142 17 -194 21 -27 2 -72 7 -100 10 -27 4 -84 10 -126 15 -42 4
-89 11 -105 14 -16 3 -45 8 -64 10 -19 3 -57 10 -83 15 -27 6 -52 9 -56 6 -5
-2 -29 1 -54 9 -25 7 -61 12 -79 11 -18 -2 -37 0 -43 5 -5 4 -48 10 -95 14
-47 4 -101 9 -120 11 -117 13 -288 16 -295 5z"/>
<path d="M27306 14013 c-13 -33 19 -45 129 -45 38 -1 187 -26 194 -34 3 -3 7
-38 9 -77 4 -70 3 -73 -23 -87 -29 -15 -37 -16 -270 -8 -186 7 -306 -3 -358
-29 -54 -27 -50 -54 16 -92 28 -16 66 -32 82 -36 17 -4 39 -10 50 -15 11 -5
58 -16 103 -24 46 -9 92 -21 103 -26 10 -6 19 -8 19 -4 0 3 6 1 14 -6 8 -6 23
-10 33 -9 10 1 32 -1 48 -5 102 -24 126 -31 180 -53 106 -42 100 -35 102 -116
l3 -72 -128 1 c-112 1 -157 5 -252 19 -38 6 -98 21 -175 45 -38 12 -86 25
-105 30 -19 4 -55 14 -80 22 -46 15 -100 8 -100 -13 0 -12 72 -89 84 -89 8 0
27 -15 83 -67 13 -13 26 -23 28 -23 2 0 17 -12 32 -26 15 -14 54 -39 86 -55
31 -16 57 -35 57 -41 0 -16 -19 -74 -41 -125 l-18 -41 -48 18 c-80 31 -212 99
-266 138 -164 115 -372 310 -353 329 3 4 6 1 6 -5 0 -7 4 -12 9 -12 17 0 -20
73 -48 97 -69 61 -94 71 -181 77 -109 8 -248 9 -325 2 -33 -3 -91 -8 -130 -11
-121 -9 -275 -26 -323 -34 -26 -5 -84 -10 -129 -10 -83 -2 -254 -10 -328 -16
-22 -1 -85 -6 -140 -9 -55 -4 -110 -9 -122 -12 -12 -2 -89 5 -170 17 -196 29
-508 30 -828 5 -16 -1 -57 -9 -90 -16 -33 -8 -64 -13 -68 -12 -4 1 -16 -2 -26
-7 -10 -6 -38 -12 -62 -15 -24 -2 -66 -9 -93 -15 -27 -7 -51 -9 -54 -7 -2 3
-13 1 -22 -4 -10 -5 -38 -12 -62 -14 -23 -2 -88 -11 -143 -20 -126 -19 -153
-22 -355 -41 -91 -9 -172 -17 -180 -20 -8 -2 -62 -7 -120 -10 -58 -3 -116 -8
-130 -10 -23 -4 -146 -17 -296 -30 -34 -3 -76 -10 -94 -15 -18 -5 -36 -7 -40
-5 -9 6 -145 -22 -183 -37 -15 -6 -32 -19 -37 -28 -13 -24 12 -30 81 -19 30 4
92 11 139 15 109 9 145 12 200 19 25 3 79 8 120 11 128 9 161 12 280 24 63 6
122 11 130 12 8 0 67 6 130 13 63 8 146 16 184 19 37 3 85 10 107 16 21 6 50
10 66 9 33 -1 112 12 243 39 52 11 102 20 110 20 71 4 317 57 335 72 32 26
480 35 610 11 202 -36 249 -42 328 -41 48 0 116 4 150 10 71 11 170 18 376 25
79 3 147 7 150 10 4 2 29 5 57 6 27 1 56 6 66 10 9 5 47 9 85 10 37 1 75 5 83
9 24 12 225 27 460 33 98 3 107 1 131 -21 15 -13 41 -52 59 -87 18 -35 39 -66
46 -69 8 -3 14 -11 14 -19 0 -16 115 -125 176 -167 12 -8 58 -40 102 -70 43
-30 84 -66 90 -80 11 -24 32 -37 142 -88 71 -33 153 -62 177 -62 12 0 28 7 36
15 8 8 17 12 20 8 3 -3 30 -7 59 -10 29 -2 75 -8 101 -12 81 -14 196 1 204 26
2 6 -42 34 -99 62 -56 29 -109 58 -118 65 -8 7 -36 23 -63 37 -26 13 -42 26
-36 28 11 3 -109 131 -124 131 -4 0 -45 30 -89 66 -45 37 -71 63 -59 59 62
-19 158 -47 176 -50 230 -44 526 -64 566 -40 5 4 9 14 9 23 0 15 15 17 144 16
130 -2 147 0 162 17 14 15 14 21 4 34 -7 8 -24 15 -37 15 -14 0 -36 9 -50 20
-14 11 -69 34 -121 50 -54 18 -103 40 -113 52 -10 11 -24 18 -32 15 -7 -3 -19
4 -25 14 -7 10 -19 19 -27 19 -9 0 -26 7 -39 15 -12 8 -83 30 -157 49 -124 31
-166 40 -304 68 -27 6 -63 16 -80 23 l-30 12 33 7 c19 5 32 14 32 23 0 14 13
15 98 9 279 -18 371 -19 387 -6 14 11 18 11 25 1 10 -18 30 -5 30 19 0 14 10
21 38 25 20 4 50 11 66 16 16 5 50 9 75 9 25 1 57 7 71 15 14 8 20 14 15 15
-6 0 -15 10 -20 21 -6 12 -26 27 -45 34 -19 7 -57 22 -85 33 -27 12 -62 24
-77 27 -16 3 -28 12 -28 20 0 7 -9 17 -20 20 -11 3 -20 13 -20 21 0 16 -17 19
-22 4 -3 -10 -34 -6 -181 24 -104 21 -143 21 -151 -1z"/>
<path d="M26656 13753 c-3 -10 -2 -40 3 -68 l8 -50 12 44 c13 44 8 91 -9 91
-5 0 -11 -8 -14 -17z"/>
<path d="M26544 13737 c-15 -15 -23 -40 -28 -82 -5 -48 -3 -56 6 -40 6 11 21
29 34 40 15 13 24 34 26 59 4 46 -9 53 -38 23z"/>
<path d="M20211 12594 c0 -11 3 -14 6 -6 3 7 2 16 -1 19 -3 4 -6 -2 -5 -13z"/>
<path d="M14899 10573 l-34 -38 38 34 c34 33 42 41 34 41 -2 0 -19 -17 -38
-37z"/>
<path d="M18023 10438 c-16 -20 -23 -146 -9 -157 26 -22 66 50 66 120 0 45 -2
49 -24 49 -13 0 -28 -6 -33 -12z"/>
<path d="M17753 10295 c-14 -39 33 -103 58 -78 9 9 7 21 -7 49 -21 43 -41 54
-51 29z"/>
<path d="M15970 9600 c-25 -25 -25 -39 -2 -56 38 -29 92 -11 92 31 0 46 -54
61 -90 25z"/>
<path d="M15376 9211 c-27 -30 -17 -63 22 -73 33 -9 72 3 72 23 0 19 -44 69
-60 69 -9 0 -25 -9 -34 -19z"/>
<path d="M20238 8133 c-14 -2 -32 -10 -38 -18 -18 -22 17 -34 116 -37 77 -3
89 -1 92 14 2 12 -5 21 -20 27 -31 11 -116 20 -150 14z"/>
<path d="M20223 8003 c-7 -2 -13 -10 -13 -18 0 -33 82 -56 115 -31 18 13 18
16 5 29 -16 15 -86 28 -107 20z"/>
<path d="M20197 7903 c-29 -28 36 -74 92 -66 84 13 96 43 16 42 -39 -1 -61 3
-74 15 -19 18 -25 19 -34 9z"/>
<path d="M21132 5895 c-23 -10 -32 -20 -30 -32 7 -33 98 -3 98 32 0 19 -25 19
-68 0z"/>
<path d="M21272 5818 c-14 -14 -16 -38 -4 -38 12 0 32 23 32 37 0 16 -12 17
-28 1z"/>
<path d="M21213 5796 c-13 -6 -23 -17 -23 -25 0 -9 -8 -12 -27 -8 -33 6 -77
-8 -53 -16 47 -17 86 -16 110 3 22 17 23 20 6 20 -20 0 -20 0 0 14 24 18 16
25 -13 12z"/>
<path d="M20917 5473 c-12 -12 -7 -41 8 -47 22 -8 45 4 45 24 0 23 -37 39 -53
23z"/>
<path d="M21610 5435 c-10 -12 -10 -19 -1 -28 14 -14 46 2 46 24 0 20 -30 23
-45 4z"/>
<path d="M21673 5383 c-15 -5 -17 -39 -4 -47 15 -9 45 20 38 38 -7 16 -13 18
-34 9z"/>
<path d="M21323 5263 c-18 -7 -16 -43 2 -43 18 0 31 28 19 39 -5 5 -15 6 -21
4z"/>
</g>
</svg>
