<?xml version="1.0" standalone="no"?>
<!DOCTYPE svg PUBLIC "-//W3C//DTD SVG 20010904//EN"
 "http://www.w3.org/TR/2001/REC-SVG-20010904/DTD/svg10.dtd">
<svg version="1.0" xmlns="http://www.w3.org/2000/svg"
 width="6024.000000pt" height="2480.000000pt" viewBox="0 0 6024.000000 2480.000000"
 preserveAspectRatio="xMidYMid meet">

<g transform="translate(0.000000,2480.000000) scale(0.100000,-0.100000)"
fill="#000000" stroke="none">
<path d="M54445 19897 c-114 -63 -132 -80 -174 -163 -23 -44 -55 -127 -72
-185 -29 -99 -31 -114 -34 -324 -2 -121 1 -247 6 -280 10 -60 51 -183 75 -220
24 -38 27 -91 7 -125 -34 -59 -105 -79 -286 -80 -41 0 -110 -69 -135 -133 -58
-151 -65 -311 -15 -368 25 -29 17 -116 -16 -174 -10 -17 -21 -44 -25 -60 -4
-17 -25 -65 -47 -107 -55 -108 -51 -159 18 -230 48 -49 49 -96 4 -165 -17 -26
-38 -63 -47 -82 -8 -18 -34 -54 -58 -80 -57 -61 -68 -85 -73 -151 -3 -39 1
-71 14 -106 24 -62 22 -118 -7 -173 -36 -71 -80 -229 -80 -288 0 -29 7 -84 17
-120 14 -56 14 -74 4 -112 -7 -25 -18 -53 -25 -61 -7 -8 -20 -35 -29 -60 -9
-25 -32 -63 -52 -85 -19 -22 -35 -47 -35 -55 0 -8 -7 -24 -15 -34 -15 -19 -13
-91 4 -175 6 -34 -23 -190 -48 -253 -13 -33 -16 -129 -6 -180 5 -29 2 -48 -19
-92 -14 -30 -26 -62 -26 -72 0 -9 -15 -38 -34 -63 -46 -66 -66 -162 -43 -208
9 -16 17 -56 18 -89 1 -32 8 -70 15 -84 14 -29 29 -100 21 -100 -13 0 -118 30
-205 59 -52 17 -101 31 -109 31 -9 0 -43 13 -77 29 -34 15 -74 31 -89 35 -16
4 -50 17 -75 29 -26 12 -76 31 -112 41 -124 35 -190 60 -190 72 0 6 -12 16
-27 22 -28 9 -195 50 -243 59 -14 2 -63 12 -110 23 -47 10 -103 22 -125 26
-22 4 -44 8 -50 10 -79 18 -224 36 -365 44 -176 11 -199 14 -410 51 -127 22
-236 39 -290 45 -65 7 -8 -14 80 -30 47 -9 157 -30 245 -46 190 -35 400 -70
470 -76 28 -3 59 -7 70 -9 11 -2 67 -7 125 -10 58 -4 128 -13 155 -20 79 -21
296 -64 339 -67 27 -1 40 -8 43 -19 3 -10 11 -15 19 -12 8 3 22 -1 32 -9 23
-20 128 -61 227 -88 44 -12 89 -28 100 -35 47 -29 405 -148 515 -170 44 -10
50 -14 50 -40 0 -16 6 -25 15 -25 8 0 15 9 15 20 0 26 3 26 74 -14 174 -97
266 -136 323 -136 l38 0 -35 19 c-19 10 -46 22 -60 26 -14 4 -61 26 -105 47
-44 22 -113 56 -152 76 -67 33 -73 39 -73 66 -1 17 -8 49 -16 71 -8 22 -17 67
-21 100 -3 33 -12 77 -19 98 -17 48 -3 112 39 174 15 24 34 62 42 85 7 24 20
61 28 82 10 28 13 63 9 121 -3 61 0 94 11 126 9 24 18 58 21 74 2 17 10 52 16
79 9 32 11 83 7 153 -6 113 3 150 49 203 12 14 31 43 42 65 83 168 88 192 66
308 -8 40 -14 90 -14 113 0 44 35 157 75 237 13 29 28 67 31 85 7 34 -13 149
-27 158 -12 7 0 103 16 135 8 15 26 35 39 45 24 18 68 88 128 203 17 33 28 69
28 93 0 34 -7 47 -45 86 -42 42 -45 49 -45 98 0 29 5 56 11 59 9 6 69 128 69
142 0 4 11 34 24 67 13 34 27 86 30 117 6 50 4 61 -18 94 -34 50 -36 81 -10
225 17 92 55 172 90 191 12 6 60 13 106 14 96 2 187 31 228 70 32 30 57 123
41 152 -63 120 -98 229 -100 308 -3 194 0 369 8 405 5 25 14 68 19 95 22 104
87 265 108 265 7 0 18 9 24 20 6 11 30 34 53 51 36 26 49 30 97 28 73 -3 111
-23 196 -105 106 -102 117 -121 272 -444 28 -58 65 -127 81 -155 17 -27 36
-61 41 -75 6 -14 18 -38 26 -55 8 -16 28 -63 45 -103 16 -41 69 -155 118 -255
49 -100 99 -216 111 -257 31 -111 51 -164 108 -280 29 -58 75 -170 103 -250
28 -80 59 -169 70 -198 20 -59 43 -162 59 -269 21 -138 50 -362 65 -493 20
-174 51 -403 77 -555 16 -91 21 -166 21 -315 1 -219 -11 -360 -55 -665 -36
-249 -36 -251 -43 -430 -6 -173 -10 -209 -40 -360 -13 -66 -28 -151 -35 -190
-28 -169 -119 -493 -171 -610 -64 -145 -231 -282 -435 -361 -182 -69 -307
-108 -429 -134 -33 -7 -68 -17 -77 -22 -53 -26 -785 -41 -814 -17 -11 9 -15 7
-20 -6 -6 -14 -1 -31 26 -85 4 -9 11 -31 15 -50 4 -19 11 -39 15 -45 4 -5 11
-26 15 -45 4 -19 10 -39 14 -45 4 -5 13 -30 21 -55 7 -25 30 -94 50 -155 21
-60 47 -139 58 -175 12 -36 30 -90 40 -120 21 -57 166 -501 167 -510 1 -6 94
-296 105 -330 10 -28 49 -181 56 -220 2 -14 9 -47 14 -75 8 -45 28 -202 46
-360 4 -33 8 -64 9 -70 0 -5 4 -44 8 -85 34 -376 41 -1053 12 -1400 -2 -25 -6
-99 -10 -165 -4 -66 -9 -123 -11 -127 -3 -4 -5 -72 -5 -150 0 -79 -7 -183 -14
-233 -8 -49 -19 -127 -25 -172 -12 -91 -35 -179 -50 -188 -15 -9 -12 -45 4
-45 32 0 80 120 91 225 4 39 13 104 21 145 7 41 16 145 18 230 3 85 12 261 21
390 8 129 18 275 21 324 7 110 7 568 0 741 -13 327 -20 445 -30 485 -3 14 -8
65 -11 113 -2 49 -6 91 -9 95 -2 4 -7 38 -11 77 -4 38 -9 73 -11 76 -2 4 -6
27 -9 50 -12 95 -14 110 -21 146 -10 59 -48 202 -72 273 -3 8 -6 20 -8 27 -5
26 -27 90 -40 120 -8 17 -14 37 -14 45 0 12 -22 81 -37 118 -3 8 -7 20 -8 25
-2 6 -12 35 -23 65 -10 30 -36 109 -57 175 -75 242 -240 730 -255 757 -6 10
-10 25 -10 34 0 9 -13 42 -29 73 l-28 56 236 0 c376 0 590 12 700 41 51 13 99
27 105 32 6 5 36 17 66 27 96 32 234 86 268 106 18 10 38 19 43 19 5 0 15 4
22 10 7 5 37 27 69 47 109 73 212 184 250 273 65 147 146 439 192 695 14 77
32 169 40 205 13 60 19 134 31 385 2 50 17 182 34 295 55 382 62 465 61 712 0
168 -14 298 -64 593 -3 17 -10 77 -16 135 -16 153 -17 163 -35 305 -48 374
-86 570 -135 689 -16 39 -41 109 -55 156 -25 80 -64 177 -85 210 -29 46 -67
140 -101 250 -23 74 -70 186 -114 275 -77 154 -125 260 -125 273 0 8 -32 82
-49 113 -18 31 -109 205 -134 254 -14 28 -49 100 -77 160 -29 61 -65 129 -81
153 -16 24 -29 46 -29 49 0 3 -37 44 -82 91 -53 53 -101 93 -133 108 -66 31
-145 32 -200 1z"/>
<path d="M41556 17030 c-32 -12 -68 -27 -80 -35 -11 -7 -46 -16 -76 -19 -60
-7 -79 -10 -190 -31 -41 -8 -104 -16 -140 -19 -36 -2 -96 -11 -135 -20 -38 -9
-94 -16 -122 -16 -29 0 -92 -7 -140 -15 -49 -8 -115 -17 -147 -20 -33 -2 -93
-17 -135 -31 -92 -32 -241 -103 -241 -115 0 -5 -5 -9 -11 -9 -17 0 -261 -190
-294 -229 -16 -20 -55 -61 -86 -91 -31 -30 -71 -80 -90 -110 -18 -30 -36 -57
-39 -60 -3 -3 -19 -23 -36 -45 -16 -22 -78 -89 -139 -150 -101 -101 -126 -133
-192 -243 -13 -22 -31 -37 -42 -38 -12 -1 -41 -18 -65 -38 -43 -35 -146 -156
-146 -172 0 -4 -6 -15 -14 -23 -41 -47 -87 -204 -101 -351 -10 -101 -5 -319 9
-390 5 -30 34 -399 34 -440 -1 -99 23 -259 44 -286 4 -6 17 -39 28 -75 10 -35
43 -100 72 -145 29 -45 69 -114 88 -155 19 -41 38 -76 42 -79 4 -3 7 -39 6
-80 -1 -41 1 -149 5 -240 4 -91 9 -244 12 -340 7 -243 20 -521 29 -600 16
-140 26 -190 70 -337 16 -55 71 -208 85 -238 12 -26 54 -152 76 -230 15 -55
34 -105 54 -145 4 -8 20 -55 35 -105 15 -49 31 -97 35 -105 10 -18 43 -129 45
-150 2 -19 24 -89 37 -115 6 -12 11 -27 13 -35 2 -8 8 -28 14 -43 7 -16 12
-33 12 -38 0 -12 88 -180 123 -235 13 -22 44 -59 68 -85 24 -25 80 -89 124
-142 44 -53 82 -97 86 -97 4 0 32 -26 63 -59 61 -62 96 -81 251 -134 206 -72
276 -89 450 -111 22 -3 65 -10 95 -16 30 -6 102 -18 160 -25 107 -14 124 -17
195 -34 22 -6 81 -19 130 -30 112 -25 227 -64 263 -89 15 -10 50 -30 77 -43
155 -77 269 -143 303 -176 10 -10 11 -21 2 -50 -5 -21 -13 -101 -15 -178 -7
-179 -14 -291 -21 -335 -13 -85 -4 -604 12 -631 1 -3 12 -40 23 -82 22 -82 64
-174 110 -247 16 -25 30 -52 30 -61 1 -8 6 -20 11 -25 6 -6 13 -31 16 -55 3
-24 7 -53 10 -64 16 -58 81 -229 110 -290 18 -38 44 -95 58 -125 14 -30 31
-64 38 -75 7 -11 26 -42 42 -70 45 -76 279 -304 349 -340 72 -37 84 -44 123
-72 17 -12 62 -39 99 -59 38 -19 104 -60 148 -90 48 -32 90 -54 106 -54 26 1
25 1 -14 37 -23 21 -32 33 -20 29 11 -4 74 -21 140 -37 118 -30 125 -30 459
-36 224 -3 364 -1 415 6 42 6 100 13 129 16 29 3 97 12 150 20 53 9 116 18
138 21 23 3 53 7 65 10 44 10 74 14 149 19 422 31 683 27 906 -14 50 -10 83
-30 84 -53 0 -13 124 -190 165 -237 22 -25 58 -68 80 -96 22 -27 42 -52 45
-55 3 -3 18 -21 33 -40 65 -81 125 -153 216 -259 25 -28 51 -62 60 -74 8 -12
20 -26 26 -32 24 -22 134 -153 176 -210 36 -50 168 -212 204 -251 5 -6 22 -26
37 -45 89 -112 116 -147 134 -176 37 -61 95 -143 146 -206 27 -34 82 -101 121
-149 38 -49 74 -88 79 -88 4 0 8 -7 8 -15 0 -7 6 -18 14 -22 7 -4 26 -26 42
-49 67 -94 100 -133 178 -214 89 -91 142 -140 152 -140 23 0 408 -375 584
-569 95 -104 198 -179 430 -312 14 -8 33 -20 42 -27 9 -8 43 -16 76 -19 54 -5
61 -3 72 16 9 18 7 28 -11 59 -12 20 -28 44 -35 52 -6 8 -22 40 -34 70 -12 30
-29 73 -38 95 -9 22 -32 67 -52 100 -20 33 -43 79 -52 102 l-16 42 42 -41 c22
-22 76 -60 119 -85 42 -25 77 -49 77 -53 0 -15 117 -59 153 -58 62 2 60 30 -6
136 -63 101 -83 74 -22 -30 20 -33 34 -63 31 -65 -3 -3 -19 2 -37 11 -18 9
-37 16 -44 16 -6 0 -29 15 -51 34 -21 18 -55 41 -74 51 -44 23 -111 74 -130
100 -8 11 -41 45 -74 75 -77 70 -180 174 -265 269 -76 85 -139 146 -196 191
-46 36 -209 196 -273 267 -24 26 -70 75 -101 108 -69 72 -142 153 -196 219
-22 26 -45 53 -50 59 -26 30 -151 174 -165 190 -42 51 -60 67 -75 67 -30 0 -9
-34 86 -144 20 -22 40 -48 45 -57 12 -21 67 -87 131 -157 29 -31 53 -60 53
-64 0 -3 26 -33 58 -66 31 -34 71 -78 88 -99 52 -63 305 -317 358 -359 28 -21
82 -73 122 -114 326 -337 374 -394 402 -467 10 -28 33 -70 49 -94 17 -24 41
-69 53 -99 41 -101 59 -138 90 -186 16 -26 30 -54 30 -61 0 -37 -126 5 -213
71 -18 14 -74 52 -125 83 -106 68 -169 120 -266 223 -39 41 -111 116 -161 166
-49 50 -144 146 -210 214 -66 67 -151 146 -190 175 -38 28 -102 85 -142 126
-69 71 -203 232 -203 243 0 8 -41 56 -72 85 -16 14 -28 30 -28 36 0 5 -23 35
-51 65 -74 79 -119 135 -119 148 0 6 -4 12 -8 14 -5 2 -44 55 -88 118 -43 63
-82 120 -86 125 -5 6 -27 35 -50 65 -23 30 -68 83 -99 116 -31 34 -79 92 -107
130 -28 38 -55 74 -59 79 -5 6 -26 32 -46 59 -21 28 -66 81 -100 120 -117 132
-143 161 -179 206 -20 25 -49 59 -65 76 -15 18 -41 48 -58 69 -16 20 -37 45
-45 54 -8 9 -31 37 -51 61 -20 25 -45 55 -55 66 -78 90 -112 134 -164 211 -32
48 -58 88 -57 89 1 0 67 -3 147 -8 80 -4 260 -10 400 -13 140 -2 359 -7 485
-10 127 -3 279 -1 340 4 132 12 274 21 412 25 101 3 103 3 119 -23 10 -14 25
-32 34 -41 22 -19 135 -143 220 -240 36 -41 86 -97 111 -125 25 -27 72 -82
106 -121 33 -39 68 -80 79 -91 10 -11 39 -44 64 -74 25 -29 65 -77 90 -105 54
-61 55 -62 153 -194 43 -58 85 -113 93 -123 8 -9 14 -19 14 -22 0 -2 37 -50
83 -107 45 -57 98 -128 117 -158 19 -30 59 -89 90 -130 30 -41 77 -111 103
-155 27 -44 84 -123 126 -175 110 -134 140 -181 199 -302 29 -59 52 -109 52
-113 0 -3 20 -36 45 -73 30 -46 50 -92 62 -141 21 -90 14 -106 -48 -106 -27 0
-43 -5 -42 -12 3 -15 -114 47 -179 95 -29 22 -79 66 -110 98 -121 126 -157
165 -189 206 -35 44 -157 170 -592 613 -141 143 -273 283 -295 310 -63 80
-368 384 -322 320 14 -19 14 -19 -5 -5 -32 24 -65 41 -65 32 0 -9 49 -62 58
-62 4 0 21 -14 39 -30 18 -17 36 -30 40 -30 9 0 98 -92 183 -190 30 -34 60
-68 65 -74 6 -6 32 -43 58 -82 26 -38 58 -81 70 -95 40 -44 177 -229 177 -239
0 -6 4 -10 9 -10 4 0 28 -28 51 -62 24 -34 57 -76 74 -93 133 -138 276 -295
312 -343 44 -58 189 -271 210 -307 6 -11 28 -49 49 -85 59 -102 106 -193 101
-197 -2 -2 -31 9 -64 26 -45 22 -100 71 -228 198 -93 92 -181 184 -194 203
-28 40 -55 71 -120 139 -25 25 -56 62 -70 81 -36 49 -161 181 -355 375 -93 94
-215 219 -270 279 -55 60 -107 117 -115 125 -46 50 -183 207 -233 269 -51 63
-77 85 -77 67 0 -10 240 -314 295 -374 43 -46 58 -63 202 -217 50 -55 176
-186 280 -291 104 -106 188 -193 187 -193 -2 0 10 -13 24 -28 15 -16 40 -44
55 -63 58 -69 157 -175 347 -368 171 -174 204 -203 263 -231 69 -33 97 -34 97
-4 0 34 -144 285 -277 482 -101 150 -169 233 -308 377 -58 61 -141 157 -183
215 -42 58 -86 119 -99 135 -36 46 -37 48 -63 84 -13 19 -19 31 -13 28 21 -13
320 -321 375 -387 31 -36 95 -103 144 -150 49 -47 100 -100 114 -119 14 -19
74 -88 135 -155 60 -67 118 -131 129 -144 21 -24 175 -130 216 -149 112 -50
216 -84 236 -76 26 10 15 21 -36 38 l-50 17 35 34 c40 39 39 31 21 127 -14 74
-35 127 -62 157 -7 9 -48 85 -90 170 -77 156 -134 244 -229 355 -49 57 -66 82
-166 240 -24 39 -46 72 -49 75 -3 3 -42 57 -87 120 -45 63 -89 125 -100 137
-19 23 -44 56 -220 292 -98 131 -140 182 -267 322 -22 25 -63 72 -91 104 -55
64 -133 154 -149 171 -6 6 -51 55 -101 109 -49 54 -114 123 -143 154 -75 79
-97 110 -80 115 7 3 69 7 138 11 69 3 152 10 185 14 75 10 287 4 380 -10 85
-14 221 -48 335 -84 75 -24 141 -41 295 -75 59 -13 227 -60 250 -70 43 -18 85
-28 89 -21 15 24 -242 108 -459 151 -33 6 -107 27 -165 45 -147 46 -236 72
-298 84 -121 25 -384 32 -482 14 -36 -7 -132 -13 -213 -15 -82 -2 -150 -5
-152 -8 -2 -3 -57 -7 -122 -8 -156 -3 -308 -12 -363 -22 -25 -5 -155 -7 -290
-5 -409 6 -752 14 -815 20 -33 3 -118 7 -189 10 -71 3 -132 7 -136 10 -6 4
-103 17 -240 32 -86 10 -341 10 -460 0 -52 -4 -133 -9 -179 -12 -102 -6 -204
-16 -213 -21 -4 -3 -51 -11 -105 -19 -54 -8 -156 -23 -228 -34 -71 -11 -148
-22 -170 -25 -50 -6 -698 -8 -716 -2 -8 3 -30 7 -49 10 -111 15 -226 38 -234
46 -14 14 -39 12 -30 -2 4 -7 3 -8 -5 -4 -6 4 -9 11 -6 16 3 5 -7 12 -22 16
-15 4 -49 21 -74 39 -25 18 -56 36 -69 40 -23 7 -119 63 -130 74 -3 4 -40 24
-83 46 -63 32 -92 55 -145 115 -36 41 -83 88 -104 104 -34 25 -98 104 -98 121
0 4 -13 27 -30 52 -16 24 -30 46 -30 49 0 5 -5 17 -75 169 -40 88 -84 220
-110 335 -18 74 -61 174 -87 201 -13 13 -41 72 -39 83 0 3 -8 26 -19 52 -11
25 -22 64 -25 86 -3 22 -7 43 -10 47 -28 46 -36 649 -9 693 2 4 4 42 3 85 -1
108 1 172 6 213 2 19 7 63 10 98 6 57 16 75 29 53 6 -9 30 -15 151 -36 125
-21 218 -28 211 -17 -10 17 -65 30 -166 42 -157 17 -188 29 -275 106 -16 15
-52 38 -80 51 -51 24 -57 28 -136 75 -25 16 -51 28 -57 28 -6 0 -37 15 -69 34
-32 19 -78 40 -103 47 -25 7 -49 16 -55 20 -10 7 -39 14 -104 24 -19 3 -38 8
-41 10 -4 3 -25 7 -46 11 -22 3 -57 10 -79 16 -57 15 -66 16 -178 28 -56 6
-104 13 -107 15 -3 2 -39 8 -80 14 -41 6 -86 13 -100 15 -14 2 -50 7 -80 11
-63 7 -107 17 -202 47 -72 23 -80 32 -99 115 -12 56 -13 266 0 308 l8 30 8
-40 c4 -22 11 -44 15 -50 4 -5 10 -29 14 -51 9 -60 41 -115 100 -171 93 -89
164 -123 341 -162 128 -28 199 -34 285 -22 92 13 296 67 320 86 8 6 26 17 40
23 59 30 175 155 215 232 19 38 47 212 38 239 -4 11 -1 10 11 -4 16 -19 16
-18 2 18 -9 21 -25 51 -36 67 -11 15 -20 33 -20 38 0 9 -21 28 -81 75 -13 9
-57 34 -99 55 -41 20 -76 40 -78 45 -2 4 -8 7 -13 7 -5 0 -48 17 -96 39 -317
140 -499 211 -538 211 -34 0 -41 -18 -10 -26 40 -10 14 -27 -42 -28 -65 -2
-128 -35 -195 -102 -52 -53 -73 -85 -111 -174 -8 -19 -27 -62 -42 -94 -15 -32
-34 -91 -41 -130 -7 -39 -16 -82 -19 -96 -25 -104 -12 -335 22 -387 18 -26 17
-27 -2 -19 -11 5 -46 16 -78 26 -58 18 -136 71 -210 143 -22 20 -43 37 -47 37
-4 0 -46 48 -93 108 -47 59 -107 132 -132 162 -25 30 -48 66 -52 79 -3 14 -18
43 -33 65 -30 44 -60 114 -81 186 -7 25 -16 50 -20 55 -3 6 -16 46 -28 90 -26
94 -59 202 -71 230 -5 11 -16 45 -25 75 -9 30 -23 69 -30 85 -7 17 -16 41 -20
55 -4 14 -13 39 -20 55 -7 17 -32 91 -55 165 -24 74 -46 137 -51 140 -4 3 -12
25 -19 50 -6 25 -25 80 -41 122 -16 43 -29 88 -29 102 0 14 -4 27 -9 30 -8 6
-16 43 -26 131 -3 22 -7 56 -11 75 -10 59 -12 80 -19 225 -11 218 -12 238 -19
440 -3 105 -8 222 -11 260 -21 316 -21 318 35 251 123 -147 221 -241 324 -310
77 -52 102 -73 155 -130 22 -25 41 -34 41 -19 0 4 -14 28 -31 53 -31 45 -58
68 -159 137 -60 41 -160 138 -255 247 -33 38 -73 83 -88 100 -36 39 -47 66
-47 119 l-1 42 -12 -29 -12 -28 -30 62 c-16 34 -34 65 -40 68 -14 10 -98 172
-89 172 5 0 3 5 -4 12 -24 24 -14 36 23 28 60 -14 184 27 281 91 38 26 89 58
114 71 25 13 64 36 87 51 24 15 45 27 48 27 6 0 116 71 125 80 12 13 129 70
173 85 51 17 135 34 202 41 129 13 318 41 360 54 17 5 59 14 95 20 72 12 278
73 325 96 41 20 124 72 139 87 51 51 186 220 191 239 7 27 -9 78 -25 78 -5 0
-10 -14 -10 -30 0 -23 -20 -54 -91 -138 -94 -111 -177 -177 -254 -202 -22 -7
-49 -17 -60 -21 -11 -5 -32 -11 -47 -13 -14 -2 -36 -9 -47 -16 -12 -6 -21 -9
-21 -6 0 3 -15 0 -32 -5 -57 -18 -261 -60 -313 -65 -27 -3 -57 -7 -65 -10 -8
-3 -42 -8 -75 -11 -33 -2 -100 -14 -150 -25 -49 -11 -101 -21 -113 -23 -38 -5
-182 -78 -233 -117 -26 -20 -67 -47 -92 -61 -25 -14 -63 -37 -86 -51 -22 -14
-44 -26 -48 -26 -12 0 -114 -70 -148 -102 -16 -15 -35 -28 -41 -28 -5 0 -39
-11 -74 -25 -62 -24 -66 -25 -117 -10 -28 8 -54 19 -57 23 -9 15 -36 204 -34
242 0 8 -2 47 -6 85 -23 272 -30 747 -11 860 26 158 100 299 209 397 56 51 71
54 111 24 43 -33 176 -100 285 -143 152 -60 245 -73 511 -71 129 0 254 -2 279
-6 87 -12 322 -71 345 -86 6 -4 29 -14 53 -24 41 -15 68 -21 138 -30 72 -9
221 -113 266 -187 31 -50 48 -61 48 -34 0 24 -25 67 -62 109 -44 51 -150 126
-177 126 -11 0 -21 4 -21 8 0 5 -12 10 -27 10 -16 1 -35 3 -43 5 -34 8 -136
40 -145 46 -5 3 -12 6 -15 6 -3 1 -41 13 -85 27 -164 53 -246 63 -545 63 -151
1 -297 4 -325 8 -168 26 -495 173 -495 224 0 16 35 79 57 101 7 7 13 18 13 23
0 5 57 67 128 138 143 145 192 201 221 257 21 39 261 294 278 294 7 0 63 43
131 100 13 11 26 20 29 20 2 0 19 11 36 24 28 21 91 52 202 101 17 7 48 18 70
23 35 9 299 43 435 56 25 2 81 11 125 19 44 8 105 15 135 16 30 1 82 8 116 16
34 8 83 17 110 20 78 9 148 27 164 40 54 47 196 57 325 24 111 -28 114 -29
171 -34 79 -6 302 -61 346 -86 10 -5 25 -9 33 -9 9 0 59 -22 111 -50 52 -27
103 -50 112 -50 10 0 22 -4 27 -9 6 -4 33 -16 60 -26 28 -9 59 -21 70 -25 11
-4 47 -16 80 -25 33 -10 83 -30 110 -45 28 -15 70 -35 95 -43 55 -19 118 -48
187 -87 28 -16 76 -35 105 -43 29 -8 91 -30 138 -49 120 -49 177 -69 242 -83
32 -7 72 -22 90 -33 18 -11 53 -28 78 -38 25 -10 63 -32 85 -49 67 -54 85 -62
215 -100 142 -42 194 -54 247 -56 21 0 72 -5 113 -10 128 -14 321 -26 550 -34
171 -6 372 -26 555 -55 66 -11 188 -28 270 -40 135 -18 201 -30 260 -46 47
-12 145 -26 215 -29 41 -2 140 -7 220 -11 80 -4 153 -6 163 -6 9 0 17 -5 17
-11 0 -8 3 -8 8 -2 4 7 38 9 92 5 73 -5 213 9 238 23 4 3 16 1 27 -3 12 -4 36
0 61 11 23 9 61 19 85 20 45 3 66 11 107 41 13 9 67 26 120 38 232 50 245 55
308 113 39 37 41 37 105 33 35 -2 79 -7 97 -11 19 -5 32 -4 32 3 0 26 -134 48
-193 31 -18 -5 -43 -22 -54 -38 -24 -32 -76 -52 -198 -75 -44 -8 -101 -21
-125 -30 -137 -45 -325 -93 -457 -116 -34 -6 -110 -8 -170 -5 -104 5 -335 13
-475 16 -38 1 -68 6 -68 11 0 5 -4 7 -9 4 -5 -4 -11 -2 -13 2 -1 5 -103 21
-225 36 -250 31 -256 32 -373 51 -47 8 -107 17 -135 21 -27 3 -52 7 -55 9 -3
2 -45 6 -95 9 -49 4 -110 9 -135 11 -25 3 -153 9 -285 15 -132 5 -271 12 -310
15 -38 3 -103 8 -144 11 -40 3 -92 11 -115 19 -22 7 -61 16 -85 20 -25 4 -85
20 -135 36 -50 16 -100 29 -112 29 -11 0 -58 27 -104 60 -46 33 -95 63 -109
67 -15 3 -56 21 -93 39 -37 19 -75 34 -85 34 -18 0 -91 26 -253 90 -52 21
-108 41 -125 44 -16 4 -75 29 -130 55 -145 70 -324 147 -386 166 -57 18 -109
37 -174 65 -22 9 -58 23 -80 30 -22 7 -51 20 -65 30 -59 40 -296 119 -419 140
-174 29 -230 40 -261 50 -19 6 -78 13 -130 16 -80 4 -104 1 -154 -16z m-259
-6132 c42 -39 20 -137 -38 -168 -56 -31 -147 32 -135 94 3 18 21 45 43 64 45
39 95 43 130 10z m-147 -263 c19 -21 22 -32 18 -79 -7 -83 -58 -176 -148 -268
-84 -86 -124 -103 -219 -96 -45 4 -59 10 -83 37 -34 38 -36 71 -5 106 15 18
34 27 64 30 106 9 217 110 237 215 14 75 88 106 136 55z m7281 -5482 c13 -16
12 -17 -3 -4 -17 13 -22 21 -14 21 2 0 10 -8 17 -17z"/>
<path d="M48091 16103 c36 -48 44 -51 120 -50 77 2 187 -7 299 -23 36 -6 151
-17 255 -25 105 -8 204 -20 220 -25 17 -6 85 -16 152 -24 117 -14 128 -17 250
-77 70 -34 155 -74 188 -89 33 -15 95 -44 138 -64 42 -20 81 -36 85 -36 5 0
38 -20 75 -45 37 -25 69 -45 72 -45 7 0 72 -45 102 -72 15 -13 60 -62 100
-109 39 -48 78 -93 85 -100 31 -34 58 -80 58 -99 0 -11 7 -23 15 -26 8 -4 15
-11 15 -18 0 -6 18 -47 40 -91 121 -244 180 -375 190 -420 6 -27 15 -70 20
-95 5 -25 14 -91 20 -147 5 -56 21 -153 34 -215 26 -122 40 -278 25 -278 -5 0
-9 -16 -9 -37 0 -37 -15 -100 -50 -206 -22 -66 -12 -69 15 -5 10 24 28 66 40
93 44 98 48 123 42 239 -5 95 -24 220 -42 267 -3 8 -12 76 -20 152 -8 77 -17
142 -20 146 -2 4 -9 39 -15 77 -8 52 -30 107 -85 221 -41 84 -75 155 -75 157
0 3 -18 42 -40 87 -22 45 -40 83 -40 85 0 7 254 -16 345 -32 17 -3 41 -7 55
-9 14 -2 92 -15 174 -29 209 -36 207 -28 -9 29 -88 23 -224 51 -295 61 -19 2
-62 9 -95 14 -33 5 -92 10 -131 10 l-71 0 -17 38 c-18 38 -55 84 -219 263 -30
32 -100 89 -110 89 -3 0 -44 25 -92 55 -49 30 -92 55 -96 55 -14 0 -286 127
-454 212 -48 24 -84 33 -180 44 -66 8 -142 18 -170 23 -27 6 -88 12 -135 15
-97 5 -293 24 -330 31 -14 3 -41 7 -60 11 -19 3 -107 7 -194 8 -116 1 -161 5
-164 14 -2 6 -8 12 -14 12 -6 0 -5 -7 3 -17z"/>
<path d="M43120 16067 c-19 -8 -50 -23 -69 -34 -18 -12 -40 -19 -47 -16 -16 6
-80 -31 -114 -67 -45 -48 -125 -144 -136 -165 -59 -106 -130 -242 -155 -295
-16 -36 -37 -78 -45 -93 -36 -65 -64 -207 -64 -332 0 -88 30 -329 49 -389 5
-17 12 -56 15 -86 9 -92 35 -211 58 -269 6 -14 12 -31 13 -36 10 -45 76 -185
127 -269 107 -176 192 -291 296 -405 19 -20 54 -70 78 -111 101 -168 139 -223
235 -338 31 -37 64 -78 75 -91 34 -44 198 -202 226 -219 16 -9 28 -20 28 -24
0 -4 6 -8 14 -8 8 0 16 -3 18 -8 4 -10 175 -142 183 -142 4 0 19 -8 33 -19 15
-10 61 -36 104 -59 42 -22 93 -51 115 -64 35 -22 122 -65 183 -90 26 -11 47
-21 78 -38 51 -27 211 -100 220 -100 7 0 12 -4 12 -8 0 -5 15 -14 33 -20 108
-36 184 -65 273 -106 56 -25 107 -46 113 -46 6 0 19 -4 29 -9 59 -33 322 -108
457 -131 33 -5 71 -12 85 -15 105 -23 157 -26 373 -23 133 1 284 1 335 -2 107
-4 132 9 67 33 -27 11 14 16 165 21 343 13 412 16 419 20 3 2 31 7 61 11 30 4
59 9 64 13 19 11 224 44 381 61 119 13 284 48 410 87 44 14 105 32 135 41 60
17 213 69 245 83 11 5 38 14 60 20 22 6 85 30 140 52 55 23 116 47 135 55 19
8 43 19 54 24 10 6 40 17 66 25 26 8 53 21 60 29 7 8 16 15 20 15 4 0 39 19
76 42 38 23 105 58 149 77 79 36 149 75 171 96 7 6 45 31 85 55 41 25 79 49
86 55 6 5 40 37 75 70 35 33 111 103 168 155 57 52 116 109 132 125 37 38 164
205 203 267 17 26 51 74 78 108 26 33 47 63 47 66 0 3 8 18 18 32 60 87 81
215 48 293 -12 28 -14 62 -11 145 8 171 8 227 2 254 -3 14 -9 41 -12 60 -4 19
-17 64 -30 100 -13 36 -35 104 -49 151 -14 48 -33 99 -41 115 -8 16 -15 36
-15 44 -1 27 -24 56 -140 181 -200 213 -329 329 -415 375 -85 45 -262 94 -400
109 -74 8 -178 26 -232 41 -114 30 -305 90 -348 109 -16 8 -68 26 -115 41 -81
25 -94 26 -283 25 -109 0 -201 -3 -205 -5 -4 -2 -68 -7 -142 -11 -162 -7 -228
-12 -255 -18 -11 -3 -63 -10 -115 -17 -99 -12 -216 -39 -285 -66 -22 -9 -47
-18 -55 -19 -8 -2 -46 -13 -85 -24 -156 -43 -551 -70 -970 -66 -290 3 -290 3
-482 72 -24 8 -98 27 -165 43 -68 16 -177 45 -243 65 -147 45 -158 49 -265 78
-47 13 -92 26 -100 29 -8 3 -40 13 -70 22 -98 29 -214 65 -275 86 -33 12 -94
30 -135 42 -41 11 -88 24 -105 28 -174 49 -184 51 -295 65 -25 3 -92 12 -150
21 -58 8 -118 17 -135 19 -16 3 -111 7 -210 10 -135 4 -189 2 -215 -8z m370
-52 c19 -3 123 -16 230 -29 177 -23 324 -53 437 -91 23 -8 52 -17 65 -19 33
-7 141 -40 228 -69 71 -25 295 -92 405 -122 106 -30 233 -66 310 -90 44 -14
121 -34 170 -46 50 -11 104 -24 120 -30 221 -68 228 -70 343 -75 128 -6 426
-6 537 0 39 2 129 7 200 11 129 7 363 37 420 55 17 5 85 27 152 50 67 22 132
40 143 40 11 0 39 4 62 10 80 17 283 41 353 41 39 0 113 4 165 9 52 6 169 11
260 13 181 2 240 -9 414 -75 44 -16 87 -31 95 -33 9 -2 43 -11 76 -20 149 -41
296 -73 360 -79 167 -16 349 -69 455 -133 60 -36 196 -166 358 -341 113 -122
119 -133 178 -327 18 -60 40 -127 49 -148 33 -79 47 -177 39 -277 -4 -52 -8
-113 -9 -135 -1 -49 14 -136 27 -152 11 -14 3 -122 -13 -172 -13 -37 -59 -121
-89 -159 -12 -15 -20 -18 -23 -10 -7 21 -27 -4 -51 -64 -18 -45 -83 -143 -120
-184 -6 -7 -20 -24 -31 -40 -35 -50 -117 -137 -184 -198 -37 -32 -96 -86 -132
-120 -36 -33 -78 -72 -95 -86 -58 -51 -257 -173 -377 -232 -67 -33 -136 -71
-153 -83 -41 -31 -117 -68 -244 -117 -58 -22 -130 -52 -160 -65 -30 -14 -62
-27 -70 -29 -8 -2 -46 -15 -85 -29 -95 -35 -192 -68 -300 -100 -49 -15 -112
-34 -140 -43 -27 -9 -55 -17 -61 -18 -6 -1 -36 -9 -65 -17 -30 -8 -85 -18
-124 -22 -38 -4 -79 -9 -90 -11 -11 -3 -49 -9 -85 -14 -131 -19 -202 -30 -209
-34 -3 -2 -26 -7 -51 -10 -57 -8 -75 -11 -125 -25 -54 -14 -129 -22 -260 -26
-60 -2 -132 -6 -160 -9 -254 -26 -754 -40 -910 -25 -123 11 -166 19 -310 54
-127 31 -405 130 -483 171 -25 13 -50 24 -56 24 -6 0 -23 6 -38 14 -15 8 -41
17 -58 21 -17 4 -71 27 -121 51 -49 24 -94 44 -99 44 -4 0 -10 3 -12 8 -1 4
-37 21 -78 37 -41 16 -91 38 -110 48 -19 11 -78 42 -130 70 -52 27 -131 68
-175 91 -44 23 -111 66 -150 94 -38 28 -97 70 -130 94 -33 23 -61 45 -63 50
-2 4 -8 8 -12 8 -5 0 -22 12 -38 28 -16 15 -49 45 -73 68 -75 69 -179 186
-237 264 -30 41 -58 77 -62 80 -14 11 -120 172 -120 183 0 7 -10 24 -22 37
-13 14 -24 31 -26 39 -1 7 -11 22 -22 34 -11 11 -20 26 -20 33 0 6 -7 14 -15
18 -8 3 -15 10 -15 16 0 9 -71 113 -100 147 -5 7 -10 15 -10 19 0 3 -9 19 -20
34 -29 41 -94 160 -141 260 -23 47 -67 139 -100 205 -42 85 -59 132 -59 160
-1 22 -7 69 -16 105 -53 232 -75 551 -44 645 18 56 74 199 80 205 3 3 38 70
78 149 83 163 159 268 250 346 l23 19 -6 -27 c-9 -34 5 -35 36 -1 13 15 47 37
74 50 48 23 57 24 205 19 85 -3 171 -8 190 -10z"/>
<path d="M48298 14654 c-2 -1 -48 -4 -103 -7 -224 -13 -281 -19 -335 -36 -14
-5 -45 -14 -70 -21 -90 -25 -320 -115 -384 -151 -10 -6 -28 -12 -39 -15 -11
-2 -40 -13 -64 -24 -24 -11 -44 -19 -45 -18 -4 4 -70 -43 -83 -58 -12 -14
-131 -94 -140 -94 -4 0 -50 -44 -103 -99 -53 -54 -110 -104 -126 -112 -41 -19
-48 -44 -11 -35 36 9 61 29 165 131 47 45 112 99 145 118 33 19 74 47 90 61
17 14 38 29 48 32 9 3 17 10 17 15 0 5 6 9 13 9 16 0 187 65 264 100 34 16 83
36 108 45 26 8 60 22 76 30 16 9 29 13 29 9 0 -4 6 -1 14 5 8 6 18 11 22 10
11 -3 61 9 92 22 13 5 56 12 95 14 40 3 113 10 163 16 133 15 416 15 504 0
101 -17 212 -46 256 -67 73 -35 154 -154 218 -322 15 -40 30 -72 33 -72 10 0
-10 87 -35 150 -65 163 -154 268 -256 299 -135 42 -278 64 -418 66 -76 1 -139
1 -140 -1z"/>
<path d="M49144 14263 c2 -25 16 -59 35 -86 26 -39 31 -55 31 -106 0 -55 -5
-68 -52 -148 -29 -48 -62 -109 -75 -134 -25 -50 -53 -80 -96 -102 -16 -8 -53
-37 -84 -63 -61 -53 -62 -54 -188 -118 -49 -25 -114 -59 -143 -76 -80 -45
-142 -64 -407 -125 -33 -7 -91 -16 -130 -20 -38 -3 -77 -8 -85 -10 -8 -3 -33
-7 -55 -11 -22 -3 -43 -8 -46 -9 -7 -5 -229 -31 -334 -40 -44 -4 -170 -22
-280 -41 -110 -19 -256 -43 -325 -54 -68 -12 -126 -22 -128 -24 -2 -2 15 -6
38 -8 22 -2 141 13 263 34 122 21 238 40 257 42 123 18 184 25 255 30 165 12
212 18 290 36 44 10 112 22 150 25 175 16 460 95 560 155 33 20 99 55 146 78
47 23 92 48 99 57 7 8 17 15 22 15 5 0 38 25 71 55 34 30 67 55 73 55 21 0 83
73 110 128 15 32 30 59 34 62 3 3 23 35 43 72 33 58 37 74 37 135 0 61 -3 74
-30 111 -17 22 -37 60 -45 84 l-15 43 4 -42z"/>
<path d="M39324 15522 c-18 -18 -11 -44 28 -98 58 -81 202 -126 448 -139 63
-4 117 -8 120 -10 4 -2 24 -6 46 -9 87 -12 110 -16 139 -23 17 -4 35 -8 40 -9
6 0 17 -3 25 -6 20 -8 99 -29 122 -33 10 -2 45 -13 76 -23 83 -29 166 -43 257
-45 75 -2 80 -1 83 19 4 29 -31 53 -133 91 -126 48 -146 54 -220 68 -65 12
-108 18 -238 31 -28 2 -68 9 -91 15 -37 10 -219 39 -336 54 -100 13 -166 40
-250 99 -46 33 -94 40 -116 18z"/>
<path d="M40130 14899 c-96 -4 -188 -10 -205 -12 -16 -3 -61 -8 -100 -12 -38
-3 -99 -13 -135 -21 -36 -8 -94 -19 -130 -24 -87 -14 -171 -57 -252 -130 -90
-82 -110 -124 -106 -232 3 -76 5 -83 24 -86 28 -4 78 39 111 97 32 55 42 63
113 100 139 70 284 110 495 136 28 3 64 10 80 15 17 5 75 11 130 14 92 5 203
20 330 45 48 9 85 38 85 66 0 6 -9 20 -21 31 -18 16 -38 19 -133 20 -61 1
-190 -2 -286 -7z m-854 -317 c-18 -16 -18 -16 -6 6 6 13 14 21 18 18 3 -4 -2
-14 -12 -24z"/>
<path d="M39003 14275 c0 -27 2 -38 4 -22 2 15 2 37 0 50 -2 12 -4 0 -4 -28z"/>
<path d="M50553 13605 c-3 -9 -3 -18 -1 -21 3 -3 8 4 11 16 6 23 -1 27 -10 5z"/>
<path d="M50541 13554 c0 -11 3 -14 6 -6 3 7 2 16 -1 19 -3 4 -6 -2 -5 -13z"/>
<path d="M50511 13499 c-6 -18 -11 -37 -10 -43 0 -6 7 7 15 28 8 22 12 41 10
43 -2 2 -9 -10 -15 -28z"/>
<path d="M50480 13394 c0 -9 -18 -31 -118 -143 -31 -35 -74 -91 -95 -125 -35
-57 -52 -80 -136 -180 -59 -71 -225 -240 -271 -275 -25 -19 -70 -59 -100 -88
-51 -49 -222 -173 -238 -173 -4 0 -18 -10 -32 -23 -50 -46 -109 -82 -380 -230
-30 -17 -57 -34 -60 -38 -11 -16 -320 -148 -400 -170 -25 -7 -49 -16 -55 -20
-5 -4 -39 -14 -75 -23 -36 -9 -75 -24 -88 -32 -12 -8 -69 -31 -125 -50 -56
-20 -156 -58 -221 -86 -143 -59 -300 -100 -496 -128 -80 -11 -165 -27 -190
-35 -25 -7 -85 -24 -135 -36 -49 -12 -94 -25 -100 -29 -13 -10 -151 -52 -295
-89 -63 -17 -140 -37 -170 -45 -30 -8 -109 -26 -175 -40 -66 -14 -196 -44
-288 -65 -149 -35 -245 -53 -342 -65 -17 -1 -8 -4 20 -4 54 -2 156 15 329 52
61 14 147 32 191 41 139 28 308 66 361 81 28 8 60 16 70 18 39 8 213 58 314
91 187 60 257 75 465 100 17 2 41 6 55 10 14 3 57 12 95 19 100 20 227 61 325
106 47 21 127 53 177 70 111 36 143 50 164 67 9 7 47 22 85 32 94 26 209 66
269 95 28 13 77 34 110 47 50 20 106 49 233 124 9 6 60 33 113 62 124 67 400
265 513 367 134 122 348 336 381 381 16 22 31 42 35 45 13 12 57 77 67 100 6
14 34 51 62 84 94 106 164 196 157 203 -3 3 -6 2 -6 -3z"/>
<path d="M41915 10574 c3 -11 17 -65 30 -119 14 -54 25 -109 25 -122 0 -14 4
-21 10 -18 23 14 -1 135 -45 228 -14 29 -23 43 -20 31z"/>
<path d="M44210 9509 c-57 -14 -279 -47 -360 -54 -41 -3 -109 -10 -150 -15
-41 -5 -145 -12 -230 -15 -85 -2 -155 -5 -155 -5 0 -5 -313 -15 -482 -15 -131
0 -215 -4 -206 -9 16 -9 483 -10 708 -1 123 5 170 8 360 21 198 13 371 40 505
78 80 23 87 35 10 15z"/>
<path d="M42480 9390 c0 -7 44 -15 155 -26 77 -7 268 -55 416 -104 125 -41
264 -105 319 -146 8 -7 26 -15 40 -19 24 -6 24 -6 -5 20 l-30 26 32 -15 c42
-21 124 -48 129 -44 4 4 -67 37 -186 88 -41 17 -88 38 -105 47 -95 48 -357
130 -460 144 -251 33 -305 38 -305 29z"/>
<path d="M44271 9227 c2 -2 47 -21 99 -42 99 -41 154 -83 166 -129 7 -31 24
-35 24 -6 0 42 -33 85 -89 118 -44 26 -224 78 -200 59z"/>
<path d="M43705 9011 c-26 -25 59 -72 200 -110 45 -11 120 -34 168 -50 56 -19
89 -26 93 -19 12 20 -45 54 -137 82 -52 16 -103 32 -114 36 -61 23 -206 65
-210 61z"/>
<path d="M44575 8944 c-48 -40 -123 -72 -225 -95 -52 -12 -106 -28 -120 -35
-23 -13 -20 -13 35 -9 126 11 171 23 270 72 l70 35 65 -30 c127 -58 386 -164
450 -184 36 -11 70 -24 75 -28 6 -4 26 -11 45 -15 19 -4 40 -10 45 -13 6 -4
71 -27 145 -53 74 -25 187 -64 250 -86 209 -73 504 -158 615 -176 17 -3 66
-17 110 -31 128 -41 137 -44 205 -61 36 -10 72 -19 80 -21 8 -2 51 -12 95 -23
44 -12 100 -23 125 -26 101 -12 233 -36 250 -45 10 -5 78 -25 151 -44 72 -18
125 -36 118 -38 -8 -3 4 -9 26 -13 22 -4 49 -12 59 -17 16 -9 18 -7 12 7 -5
14 -2 16 16 12 13 -3 41 -9 63 -12 35 -7 38 -6 25 7 -18 18 -96 40 -235 67
-55 11 -143 33 -194 50 -52 17 -133 36 -179 41 -94 12 -233 40 -337 69 -134
37 -290 81 -355 100 -36 10 -92 25 -125 31 -71 15 -338 91 -445 126 -70 23
-146 50 -310 109 -36 13 -105 35 -155 50 -49 15 -104 33 -122 41 -17 8 -34 14
-37 14 -9 0 -243 88 -281 105 -16 8 -61 25 -100 39 -99 35 -150 62 -136 70 15
10 14 36 -1 36 -7 -1 -26 -12 -43 -26z"/>
<path d="M56435 8810 c-22 -5 -69 -11 -105 -14 -98 -9 -254 -28 -260 -31 -3
-2 -38 -6 -78 -10 -66 -6 -242 -46 -392 -90 -30 -8 -66 -18 -80 -20 -14 -3
-32 -8 -40 -11 -57 -22 -310 -87 -380 -98 -100 -16 -322 -62 -365 -76 -33 -11
-174 -51 -190 -54 -5 -2 -35 -10 -65 -20 -30 -9 -70 -19 -89 -22 -38 -5 -51
-11 -51 -24 0 -33 98 -17 340 55 46 14 202 48 320 70 182 34 304 63 545 130
33 10 77 21 98 26 21 5 45 13 55 18 34 18 250 61 381 76 73 8 136 17 140 19 3
2 47 7 96 11 50 3 108 11 130 15 61 14 183 11 250 -6 33 -9 80 -20 105 -25 48
-11 67 -19 205 -84 50 -23 122 -50 160 -60 39 -9 117 -40 174 -68 87 -44 118
-66 196 -142 50 -49 113 -124 140 -165 26 -41 56 -88 67 -103 33 -47 84 -158
103 -222 9 -33 22 -73 27 -90 14 -41 37 -139 49 -205 9 -52 80 -336 134 -540
14 -52 43 -149 65 -215 21 -66 41 -131 43 -145 13 -62 47 -216 51 -225 2 -5 5
-13 6 -17 9 -27 35 -138 51 -218 10 -52 22 -113 28 -134 5 -22 9 -42 9 -45 0
-3 1 -8 2 -11 3 -9 21 -119 25 -155 2 -11 5 -33 8 -50 3 -16 9 -61 13 -100 4
-38 9 -83 11 -100 8 -66 10 -664 3 -720 -4 -33 -11 -94 -15 -135 -6 -70 -8
-94 -19 -167 -2 -16 -13 -80 -24 -143 -30 -163 -31 -174 -38 -280 -7 -123 -49
-455 -68 -545 -8 -38 -28 -124 -44 -190 -16 -66 -37 -163 -47 -215 -10 -52
-25 -129 -35 -170 -10 -41 -23 -113 -30 -160 -10 -72 -20 -122 -45 -220 -21
-88 -73 -247 -99 -310 -19 -43 -31 -81 -28 -84 10 -11 -33 -4 -83 12 -27 9
-50 23 -50 30 0 7 -22 23 -50 36 -102 47 -205 171 -205 246 0 11 -4 20 -10 20
-5 0 -10 -7 -10 -15 0 -35 -22 -9 -65 77 -25 50 -49 96 -54 102 -4 6 -34 61
-66 121 -32 61 -63 117 -70 125 -6 8 -14 22 -18 31 -26 74 -186 269 -221 269
-23 0 -19 -17 6 -31 13 -7 31 -23 41 -36 10 -13 24 -29 30 -36 21 -21 77 -101
77 -108 0 -5 13 -27 29 -51 27 -41 60 -103 94 -178 163 -364 270 -513 421
-590 77 -39 183 -53 212 -29 22 18 58 92 93 190 57 161 90 249 101 270 7 12
10 32 7 45 -2 13 0 21 4 18 5 -3 9 7 8 23 0 25 -1 26 -9 8 -7 -16 -9 -17 -9
-3 -1 9 4 20 9 23 6 4 8 10 5 15 -7 12 14 166 35 250 10 41 33 144 50 229 17
85 33 158 35 161 7 11 43 181 50 235 4 28 9 53 11 56 2 3 6 35 9 70 4 35 8 71
10 79 2 8 7 49 10 90 3 41 8 98 10 125 3 28 7 75 10 105 3 30 16 118 30 195
27 157 45 285 50 360 2 28 6 77 9 110 10 105 13 445 5 575 -9 153 -18 267 -23
300 -3 14 -10 59 -16 100 -16 108 -50 280 -62 318 -5 18 -13 56 -18 85 -4 29
-11 61 -14 72 -3 11 -19 79 -36 150 -37 153 -45 182 -105 380 -25 83 -50 166
-55 185 -5 19 -16 60 -24 90 -8 30 -17 66 -20 80 -4 22 -18 81 -30 130 -12 44
-50 212 -58 255 -16 84 -73 276 -99 335 -7 14 -17 36 -22 50 -29 67 -166 261
-223 315 -35 33 -83 79 -107 102 -49 46 -229 138 -292 149 -52 9 -156 47 -225
83 -56 29 -110 48 -215 77 -33 8 -76 20 -95 25 -51 14 -198 19 -245 9z"/>
<path d="M47540 8005 c0 -7 83 -40 93 -37 4 1 7 -2 7 -8 0 -5 6 -10 13 -10 17
0 50 -36 72 -78 9 -19 19 -32 22 -29 2 3 -1 16 -8 28 -9 17 -9 24 0 27 19 6
12 29 -15 46 -14 10 -60 28 -102 42 -85 27 -82 26 -82 19z"/>
<path d="M54780 7073 c-45 -7 -108 -23 -137 -35 -15 -6 -30 -12 -33 -13 -3 -1
-20 -6 -37 -10 -18 -4 -33 -11 -33 -16 0 -5 -6 -9 -14 -9 -7 0 -25 -11 -40
-25 -14 -13 -42 -27 -61 -31 -58 -10 -205 -92 -282 -155 -39 -32 -74 -59 -78
-59 -4 0 -33 -15 -64 -34 -31 -18 -74 -40 -96 -47 -22 -7 -64 -26 -93 -41 -29
-16 -61 -28 -72 -28 -11 0 -28 -4 -38 -9 -19 -9 -138 -49 -168 -56 -10 -2 -66
-21 -123 -40 -57 -20 -116 -38 -130 -40 -14 -2 -37 -8 -51 -13 -14 -5 -75 -22
-135 -37 -61 -14 -118 -31 -127 -36 -10 -5 -26 -9 -36 -9 -10 0 -22 -3 -26 -7
-7 -8 -10 -9 -86 -23 -30 -6 -84 -19 -120 -30 -36 -10 -85 -21 -110 -24 -59
-8 -96 -15 -145 -28 -22 -6 -53 -12 -70 -15 -16 -2 -37 -6 -45 -9 -27 -10
-192 -32 -290 -39 -107 -9 -356 -8 -500 0 -52 3 -171 7 -265 10 -93 3 -197 7
-230 10 -33 2 -103 7 -155 10 -109 6 -246 22 -305 35 -22 5 -78 11 -124 15
-47 3 -87 8 -90 9 -3 2 -28 7 -56 10 -201 27 -469 87 -590 133 -66 25 -73 27
-55 14 17 -12 154 -71 179 -76 9 -2 77 -19 152 -38 74 -19 160 -38 190 -42 30
-4 59 -11 64 -16 6 -4 20 -8 30 -7 41 1 240 -27 360 -52 84 -18 143 -24 335
-36 41 -2 98 -6 125 -9 28 -3 133 -7 234 -10 102 -4 188 -8 191 -10 4 -2 97
-5 206 -5 326 -2 581 25 770 81 32 10 66 16 144 25 25 3 52 10 62 15 9 5 25 9
36 9 11 0 42 6 68 14 27 8 81 23 119 34 39 11 86 23 105 27 37 7 160 42 195
55 11 5 55 16 97 25 43 10 92 25 110 35 18 9 58 23 88 30 30 7 62 17 70 21 19
10 52 22 65 23 35 5 113 34 193 72 52 24 96 44 99 44 30 0 192 99 242 149 24
23 129 84 181 105 87 35 135 59 157 78 31 29 220 92 267 90 21 -1 22 -2 82
-112 23 -41 65 -113 92 -160 72 -121 257 -488 277 -551 10 -30 21 -58 26 -64
5 -5 9 -15 9 -21 0 -7 5 -25 12 -41 6 -15 12 -30 13 -33 0 -3 16 -34 34 -68
22 -44 61 -93 125 -155 81 -81 98 -105 147 -202 29 -60 69 -132 87 -160 18
-27 37 -68 44 -90 6 -22 23 -72 38 -111 27 -69 34 -94 45 -164 19 -114 41
-160 77 -160 26 0 65 -44 93 -106 14 -30 25 -57 25 -59 0 -2 16 -37 35 -76 19
-40 35 -77 35 -82 0 -5 15 -42 34 -81 18 -39 39 -89 46 -111 25 -76 39 -101
82 -141 47 -43 88 -116 115 -209 15 -48 22 -60 38 -58 11 1 42 -3 69 -8 37 -7
56 -17 75 -41 14 -17 41 -45 60 -62 70 -65 151 -184 151 -224 0 -24 146 -316
166 -333 29 -24 13 20 -57 162 -39 78 -78 165 -86 192 -23 79 -52 118 -175
245 -45 45 -86 82 -92 83 -6 0 -24 2 -41 5 -16 2 -40 4 -52 4 -18 0 -23 9 -32
52 -17 77 -66 166 -119 214 -38 33 -51 53 -61 95 -8 28 -22 68 -32 88 -11 20
-39 83 -63 141 -126 302 -131 310 -191 330 -25 8 -36 21 -49 55 -10 24 -19 61
-21 82 -9 88 -99 355 -137 405 -25 33 -30 44 -86 170 -24 54 -50 86 -134 170
-113 112 -127 134 -200 328 -46 123 -148 337 -221 465 -72 124 -66 114 -129
218 -32 51 -58 97 -58 102 0 4 -11 23 -26 42 -22 29 -23 33 -7 35 35 3 68 -3
106 -17 47 -19 57 -19 57 0 0 37 -154 73 -250 58z"/>
<path d="M47885 5750 c10 -11 20 -20 23 -20 3 0 -3 9 -13 20 -10 11 -20 20
-23 20 -3 0 3 -9 13 -20z"/>
<path d="M47910 5716 c0 -2 7 -9 15 -16 13 -11 14 -10 9 4 -5 14 -24 23 -24
12z"/>
</g>
</svg>
